<svg id="SvgjsSvg1082" width="288" height="288" xmlns="http://www.w3.org/2000/svg" version="1.1" xmlns:xlink="http://www.w3.org/1999/xlink" xmlns:svgjs="http://svgjs.com/svgjs"><defs id="SvgjsDefs1083"></defs><g id="SvgjsG1084"><svg xmlns="http://www.w3.org/2000/svg" width="288" height="288" viewBox="0 0 80 80"><g transform="translate(-606.457 -2044.002)" fill="#ffffff" class="color000 svgShape"><g fill="none" stroke="#2e2655" stroke-width="2" transform="translate(606.457 2044.002)" class="colorStrokefff svgStroke"><circle cx="40" cy="40" r="40" stroke="none" fill="#ffffff" class="color000 svgShape"></circle><circle cx="40" cy="40" r="39" fill="#ffffff" class="color000 svgShape"></circle></g><path fill="none" stroke="#2e2655" stroke-width="2" d="M366.5,496.608c-1.169-1.187-2.171-2.268-3.239-3.28a13.091,13.091,0,0,0-13.219-3.377,13.479,13.479,0,0,0-5.9,22.427c7.24,7.31,14.541,14.56,21.818,21.833.14.139.307.251.484.4a8.671,8.671,0,0,0,.714-.576c7.174-7.167,14.379-14.3,21.5-21.521a13.489,13.489,0,0,0-19.114-19.037C368.53,494.448,367.579,495.5,366.5,496.608Z" transform="translate(280.071 1575.508)" class="colorStrokefff svgStroke"></path><g fill="#ffffff" transform="translate(650 2080)" class="color2e2655 svgShape"><path d="M 9.502851486206055 30.47651290893555 C 7.176948547363281 26.65802192687988 5.184603691101074 22.8506031036377 3.703259944915771 19.38679695129395 C 1.934769988059998 15.25157642364502 1 11.83277702331543 1 9.499997138977051 C 1 4.813076972961426 4.813079833984375 0.9999969005584717 9.5 0.9999969005584717 C 14.18692016601562 0.9999969005584717 18 4.813076972961426 18 9.499997138977051 C 18 11.88351726531982 17.1286506652832 15.20837688446045 15.48015975952148 19.11512756347656 C 14.03661823272705 22.5361385345459 11.98244571685791 26.43836975097656 9.502851486206055 30.47651290893555 Z" fill="#ffffff" class="color000 svgShape"></path><path fill="#2e2655" d="M 9.5 1.999996185302734 C 5.364489555358887 1.999996185302734 2 5.364486694335938 2 9.499996185302734 C 2 13.41862487792969 4.892702102661133 20.6904296875 9.506577491760254 28.53624534606934 C 11.5777530670166 25.0488224029541 13.30366706848145 21.70090103149414 14.55881977081299 18.72635650634766 C 16.15584945678711 14.94156646728516 17 11.75114631652832 17 9.499996185302734 C 17 5.364486694335938 13.6355094909668 1.999996185302734 9.5 1.999996185302734 M 9.5 -3.814697265625e-06 C 14.74670028686523 -3.814697265625e-06 19 4.253297805786133 19 9.499996185302734 C 19 14.74670600891113 15.23729991912842 23.30663681030273 9.5 32.37109756469727 C 4.256839752197266 24.04296684265137 0 14.74670600891113 0 9.499996185302734 C 0 4.253297805786133 4.253299713134766 -3.814697265625e-06 9.5 -3.814697265625e-06 Z" class="colorfff svgShape"></path></g><g fill="none" stroke="#2e2655" stroke-width="2" transform="translate(655 2085)" class="colorStrokefff svgStroke"><circle cx="4.5" cy="4.5" r="4.5" stroke="none" fill="#ffffff" class="color000 svgShape"></circle><circle cx="4.5" cy="4.5" r="3.5" fill="#ffffff" class="color000 svgShape"></circle></g></g></svg></g></svg>