<svg xmlns="http://www.w3.org/2000/svg" width="80.2298812866211" height="80.68965148925781"><rect id="backgroundrect" width="100%" height="100%" x="0" y="0" fill="none" stroke="none"/><g class="currentLayer" style=""><title>Layer 1</title><g id="svg_1" class="selected" stroke-opacity="1" stroke="#004a75"><g fill="none" stroke="#004a75" stroke-width="2" id="svg_2"><circle cx="40.40229878802393" cy="40.28735708397471" r="39.19540486712549" stroke="#004a75" id="svg_3"/><circle cx="40.40229878802393" cy="40.28735708397471" r="38.215518133654314" fill="none" id="svg_4" stroke="#004a75"/></g><g fill="none" stroke="#004a75" stroke-width="2" id="svg_5"><ellipse cx="24.997038812050505" cy="43.516312667219154" rx="2.451568262416828" ry="2.480153826153156" stroke="#004a75" id="svg_6"/><ellipse cx="24.997038812050505" cy="43.516312667219154" rx="1.4673979519172065" ry="1.4845080641442365" fill="none" id="svg_7" stroke="#004a75"/></g><g fill="none" stroke="#004a75" stroke-width="2" id="svg_8"><ellipse cx="33.710884997724406" cy="43.516312667219154" rx="2.451568262416828" ry="2.480153826153156" stroke="#004a75" id="svg_9"/><ellipse cx="33.710884997724406" cy="43.516312667219154" rx="1.4673979519172065" ry="1.4845080641442365" fill="none" id="svg_10" stroke="#004a75"/></g><path d="M11.665062934026524,25.4793559719965 h5.854829177162247 l5.412936707747917,13.711039423108101 h13.054034998466978 l3.3097647542102266,-10.68527159166336 h-20.183364727726232 " fill="none" stroke="#004a75" stroke-linecap="round" stroke-width="2" id="svg_11"/><path d="M21.831603752133077,35.97604601106544 h15.219209681566145 " fill="none" stroke="#004a75" stroke-width="2" id="svg_12"/><path d="M42.71647431282021,45.054282923415684 l-3.423928510228183,3.461860727190971 l3.423928510228183,3.4638520189523696 " fill="none" stroke="#004a75" stroke-linecap="round" stroke-linejoin="round" stroke-width="2" id="svg_13"/><path d="M51.164123239484404,45.054282923415684 l3.422944339917683,3.461860727190971 l-3.422944339917683,3.4638520189523696 " fill="none" stroke="#004a75" stroke-linecap="round" stroke-linejoin="round" stroke-width="2" id="svg_14"/><path d="M45.17759208381948,54.79260194073107 l3.524313881899144,-12.552107617974281 " fill="none" stroke="#004a75" stroke-linecap="round" stroke-width="2" id="svg_15"/><path d="M33.882131031265246,28.08900605317506 v-3.8173063066005706 h27.064683538739587 v35.50672339749336 h-27.064683538739587 v-14.891875437617303 " fill="none" stroke="#004a75" stroke-linejoin="round" stroke-width="2" id="svg_16"/></g></g></svg>