<svg xmlns="http://www.w3.org/2000/svg" width="80" height="80" style=""><rect id="backgroundrect" width="100%" height="100%" x="0" y="0" fill="none" stroke="none"/><g class="currentLayer" style=""><title>Layer 1</title><g id="svg_1" class="" stroke-opacity="1" stroke="#2e2655"><path d="M71.94655438222519,44.59407607271032 a2.221459817916418,2.262520727543031 0 0 1 -1.5126069030450942,2.7941243335350503 c-2.4412816917904494,0.7268865632952114 -6.436810553483188,1.8739273680609232 -8.513013626548926,2.4587899624083587 a2.3889892636442043,2.433146745792789 0 0 1 -0.6943272403862568,0.10947680939724351 a0.8831610086921421,0.8994851366692432 0 0 1 -0.9325483019413733,-0.8265005970710817 c-0.046482158352218035,-0.22092617391876168 -0.11330026098353149,-0.43692096002683667 -0.17527647211982225,-0.653902023697049 c-0.030988105568145383,-0.10750425427296888 -0.07069161582733159,-0.2130359534216631 -0.091027560106427,-0.27517143983631465 l-2.118811718221937,0.3945110248549315 c-0.38250942810679434,0.6627785217562855 -0.7301572374494247,1.3156942678911958 -1.1242872051442727,1.9380354095998498 A3.445489987858159,3.509175566084614 0 0 1 54.41503365704693,52.057238385403494 a0.5974894104858027,0.6085332558387321 0 0 0 -0.5626277917216388,0.5917665372823979 a4.580429354291482,4.6650928689095625 0 0 1 -2.3018352167337954,3.320796551716384 a3.7418137473535484,3.8109765000986355 0 0 1 -2.3880208853452003,0.3521010896830266 c-0.137509718458645,-0.00986277562137329 -0.2730826803192812,-0.039451102485493175 -0.4348018562530394,-0.06312176397678905 a2.3589695363750636,2.402572141366531 0 0 1 -0.1510670146447087,0.3945110248549315 a11.495618787482913,11.708100940132221 0 0 1 -1.0458485629249048,1.6668090800120856 a3.259561354449287,3.319810274154247 0 0 1 -3.402881342701959,0.9409087942790112 a4.7673263659993586,4.855444438402067 0 0 1 -2.039404697703564,-1.0740562651675503 c-0.21497998237900842,-0.1893652919303672 -0.41640266857195335,-0.3708403633636356 -0.6614023782201028,-0.5917665372823979 c-0.050355671548236246,0.1252572503914406 -0.091027560106427,0.21106339829738835 -0.12104728737556764,0.3008146564518855 A3.7030786153933666,3.7715253976131424 0 0 1 40.10627591095598,59.65157561386096 a2.578791410249094,2.626457147971705 0 0 1 -1.4796820408789393,0.5582331001697284 A5.152740929003165,5.247982908132723 0 0 1 34.77051148344096,58.86255356415115 A103.70653717529336,105.62342296197288 0 0 1 23.31943809771222,48.44844878554313 c-0.8231215541538605,-0.9004714142313806 -1.5794250056764074,-1.8640645924395502 -2.394799533438231,-2.832589158458406 c-0.09683782990045421,0.34716970187233986 -0.20723295598697208,0.6992707915553656 -0.30697592078443997,1.0543307139248037 c-0.171402958923804,0.6114920885251441 -0.33505889145557216,1.2259430097366988 -0.5103353635753933,1.836448820699705 a1.2201566567457225,1.2427097282930333 0 0 1 -1.6084763546465441,0.9251283532848139 c-3.141419201970733,-0.9024439693556554 -6.285743538838479,-1.7950251630899372 -9.41360544462315,-2.744810455428184 c-1.0381015365328687,-0.31560881988394524 -1.1475282843203818,-0.6105058109630063 -0.8628250644130473,-1.7023150722490286 c0.9470739764264419,-3.634432816476054 1.9774284865672735,-7.24618124902295 2.975826512840956,-10.865819902066944 c0.8637934427120515,-3.1304449822238793 1.7430809382081751,-6.25694485419921 2.584601680043121,-9.392321224233774 c0.2905134897013628,-1.0691248773568638 0.8250583107518699,-1.2121351238667761 1.6878833751649167,-0.9734559538295428 c3.1898381169209595,0.881732140550772 6.361277046160833,1.8344762655754305 9.540463001792745,2.7615771739845183 a1.1843266596825544,1.2062174584939522 0 0 1 0.8211847975558516,0.8876498059235957 c0.2856715982063399,-0.036492269799081184 0.5694064398146704,-0.08876498059235971 0.8550780380210107,-0.10553169914869419 c2.5555503310729852,-0.1499141894448741 5.11303741874398,-0.28503421545768826 7.6676193715179615,-0.4497425683346216 a2.652388160973439,2.7014142426941414 0 0 0 1.0652161289049957,-0.28306166033341335 A11.535322297742098,11.748538320179854 0 0 1 43.99625153805727,25.624999720123146 a38.78355087513189,39.50041636359998 0 0 1 7.8835677321959725,3.0574604426257173 a1.037133158233864,1.0563032690490783 0 0 0 0.8124693928648103,0.05621782104182773 c0.4638532052231758,-0.16963974068762055 0.9451372198284326,-0.2958832686411987 1.4099588033506123,-0.46059162151813243 a0.5103353635753933,0.5197682752463715 0 0 0 0.2905134897013628,-0.28700677058196267 a1.1736744983935044,1.1953684053104416 0 0 1 0.9160858708582964,-0.881732140550772 c3.156913254754805,-0.8975125815449688 6.310921374612597,-1.8078467713977229 9.468803007666407,-2.7024005202562793 a3.7970113103968073,3.8671943211404636 0 0 1 0.8850977652901516,-0.10849053183510621 c0.3873513196018169,-0.012821608307785273 0.563596170020643,0.2495282232207441 0.6604339999210981,0.5917665372823979 q2.096539017344832,7.397081716029961 4.194046412988669,14.794163432059921 C70.81645690728698,40.715046420824216 71.47398577231093,42.91345910682836 71.94655438222519,44.59407607271032 z" fill="none" stroke="#2e2655" stroke-linecap="round" stroke-miterlimit="10" stroke-width="2" id="svg_2"/><path d="M35.50074153839916,26.537313207231886 s-6.321573535901647,7.137690717187843 -5.0142628322455165,10.311531912145766 s3.798948066994817,2.7615771739845183 5.596258189947244,0.46946811957736834 s5.146930659209138,-2.9588326864119843 5.596258189947244,-2.7457967329903217 s15.808775731249142,13.355184468901559 16.381087305960826,13.604712692122305 " fill="none" stroke="#2e2655" stroke-linecap="round" stroke-miterlimit="10" stroke-width="2" id="svg_3"/><line x1="53.955157568908476" y1="52.19233046467818" fill="none" stroke="#2e2655" stroke-linecap="round" stroke-miterlimit="10" stroke-width="2" y2="45.22329322566522" x2="45.96022675345097" id="svg_4"/><line x1="48.623257840538336" y1="56.24893843523767" fill="none" stroke="#2e2655" stroke-linecap="round" stroke-miterlimit="10" stroke-width="2" y2="49.21776551040549" x2="41.229689305994455" id="svg_5"/><line x1="41.33133210515979" y1="57.39403750229057" fill="none" stroke="#2e2655" stroke-linecap="round" stroke-miterlimit="10" stroke-width="2" y2="52.38078847335372" x2="36.85839278269258" id="svg_6"/><line x1="25.83342548250819" y2="45.61488805278756" fill="none" stroke="#2e2655" stroke-linecap="round" stroke-miterlimit="10" stroke-width="2" x2="20.924716110192442" y1="27.39143824449801" id="svg_7"/><line x2="60.02775251231187" y2="48.199950046715514" fill="none" stroke="#2e2655" stroke-linecap="round" stroke-miterlimit="10" stroke-width="2" y1="27.986190582993906" x1="54.39760095630108" id="svg_8"/><g fill="none" stroke="#2e2655" stroke-width="2" id="svg_9"><circle cx="40.05988075534151" cy="40.41916315218307" r="38.203590429015776" stroke="#2e2655" id="svg_10"/><circle cx="40.05988075534151" cy="40.41916315218307" r="37.24850247743598" fill="none" id="svg_11" stroke="#2e2655"/></g></g></g></svg>