<svg id="SvgjsSvg1419" width="288" height="288" xmlns="http://www.w3.org/2000/svg" version="1.1" xmlns:xlink="http://www.w3.org/1999/xlink" xmlns:svgjs="http://svgjs.com/svgjs"><defs id="SvgjsDefs1420"></defs><g id="SvgjsG1421"><svg xmlns="http://www.w3.org/2000/svg" width="288" height="288" viewBox="0 0 80 80"><g transform="translate(-168.957 -1020.703)" fill="#ffffff" class="color000 svgShape"><g fill="none" stroke="#005e19" stroke-width="2" transform="translate(168.957 1020.703)" class="colorStrokefff svgStroke"><circle cx="40" cy="40" r="40" stroke="none" fill="#ffffff" class="color000 svgShape"></circle><circle cx="40" cy="40" r="39" fill="#ffffff" class="color000 svgShape"></circle></g><g transform="translate(185.357 1039.375)" fill="#ffffff" class="color000 svgShape"><g fill="none" stroke="#005e19" stroke-width="2" transform="translate(-.4 11.328)" class="colorStrokefff svgStroke"><rect width="22" height="9" stroke="none" rx="3" fill="#ffffff" class="color000 svgShape"></rect><rect width="20" height="7" x="1" y="1" rx="2" fill="#ffffff" class="color000 svgShape"></rect></g><g fill="none" stroke="#005e19" stroke-width="2" transform="translate(23.6 33.328)" class="colorStrokefff svgStroke"><rect width="21" height="9" stroke="none" rx="3" fill="#ffffff" class="color000 svgShape"></rect><rect width="19" height="7" x="1" y="1" rx="2" fill="#ffffff" class="color000 svgShape"></rect></g><g fill="none" stroke="#005e19" stroke-width="2" transform="translate(12.6 22.328)" class="colorStrokefff svgStroke"><rect width="20" height="9" stroke="none" rx="3" fill="#ffffff" class="color000 svgShape"></rect><rect width="18" height="7" x="1" y="1" rx="2" fill="#ffffff" class="color000 svgShape"></rect></g><g fill="none" stroke="#005e19" stroke-width="2" transform="translate(12.6 .328)" class="colorStrokefff svgStroke"><rect width="20" height="9" stroke="none" rx="3" fill="#ffffff" class="color000 svgShape"></rect><rect width="18" height="7" x="1" y="1" rx="2" fill="#ffffff" class="color000 svgShape"></rect></g><g fill="none" stroke="#005e19" stroke-width="2" transform="translate(33.6 22.328)" class="colorStrokefff svgStroke"><rect width="11" height="9" stroke="none" rx="3" fill="#ffffff" class="color000 svgShape"></rect><rect width="9" height="7" x="1" y="1" rx="2" fill="#ffffff" class="color000 svgShape"></rect></g><g fill="none" stroke="#005e19" stroke-width="2" transform="translate(33.6 .328)" class="colorStrokefff svgStroke"><rect width="11" height="9" stroke="none" rx="3" fill="#ffffff" class="color000 svgShape"></rect><rect width="9" height="7" x="1" y="1" rx="2" fill="#ffffff" class="color000 svgShape"></rect></g><g fill="none" stroke="#005e19" stroke-width="2" transform="translate(-.4 33.328)" class="colorStrokefff svgStroke"><rect width="7" height="9" stroke="none" rx="3" fill="#ffffff" class="color000 svgShape"></rect><rect width="5" height="7" x="1" y="1" rx="2" fill="#ffffff" class="color000 svgShape"></rect></g><g fill="none" stroke="#005e19" stroke-width="2" transform="translate(7.6 33.328)" class="colorStrokefff svgStroke"><rect width="14" height="9" stroke="none" rx="3" fill="#ffffff" class="color000 svgShape"></rect><rect width="12" height="7" x="1" y="1" rx="2" fill="#ffffff" class="color000 svgShape"></rect></g><g fill="none" stroke="#005e19" stroke-width="2" transform="translate(-.4 22.328)" class="colorStrokefff svgStroke"><rect width="11" height="9" stroke="none" rx="3" fill="#ffffff" class="color000 svgShape"></rect><rect width="9" height="7" x="1" y="1" rx="2" fill="#ffffff" class="color000 svgShape"></rect></g><g fill="none" stroke="#005e19" stroke-width="2" transform="translate(22.6 11.328)" class="colorStrokefff svgStroke"><rect width="21" height="9" stroke="none" rx="3" fill="#ffffff" class="color000 svgShape"></rect><rect width="19" height="7" x="1" y="1" rx="2" fill="#ffffff" class="color000 svgShape"></rect></g></g></g></svg></g></svg>