<svg id="SvgjsSvg1173" width="288" height="288" xmlns="http://www.w3.org/2000/svg" version="1.1" xmlns:xlink="http://www.w3.org/1999/xlink" xmlns:svgjs="http://svgjs.com/svgjs"><defs id="SvgjsDefs1174"></defs><g id="SvgjsG1175"><svg xmlns="http://www.w3.org/2000/svg" width="288" height="288" viewBox="0 0 80 80"><g transform="translate(-168.957 -1529.959)" fill="#ffffff" class="color000 svgShape"><g fill="none" stroke="#005e19" stroke-width="2" transform="translate(168.957 1529.959)" class="colorStrokefff svgStroke"><circle cx="40" cy="40" r="40" stroke="none" fill="#ffffff" class="color000 svgShape"></circle><circle cx="40" cy="40" r="39" fill="#ffffff" class="color000 svgShape"></circle></g><path fill="none" stroke="#005e19" stroke-width="2" d="M39.842,35.453l3.56,2.753-.789,2.062a28.122,28.122,0,0,1-2.78,4.994,25.169,25.169,0,0,1-3.577,4.325,6.925,6.925,0,0,1-4.6,2.024A11.565,11.565,0,0,1,27.406,50.6a12.162,12.162,0,0,0-4.573-1.012,12.583,12.583,0,0,0-4.7,1.012,12.63,12.63,0,0,1-4.064,1.066,6.527,6.527,0,0,1-4.7-2.078A26.681,26.681,0,0,1,5.62,45.11a30.954,30.954,0,0,1-3.958-7.864A28.776,28.776,0,0,1,0,27.877a17.11,17.11,0,0,1,2.247-8.952,13.182,13.182,0,0,1,4.706-4.76,12.661,12.661,0,0,1,6.363-1.8,14.983,14.983,0,0,1,4.921,1.145,15.822,15.822,0,0,0,3.9,1.148,23.352,23.352,0,0,0,4.328-1.352,14.31,14.31,0,0,1,5.884-1.045q6.52.526,9.785,5.152-5.831,3.534-5.772,9.888a10.913,10.913,0,0,0,3.58,8.221M32.5-1.819a10.154,10.154,0,0,1,.052,1.034,11.031,11.031,0,0,1-2.824,7.23c-2.271,2.655-5.019,4.189-8,3.947a8.024,8.024,0,0,1-.06-.979,11.326,11.326,0,0,1,3-7.307A11.565,11.565,0,0,1,28.314-.635,19.412,19.412,0,0,1,32.5-1.819Z" transform="translate(185.837 1540.516)" class="colorStrokefff svgStroke"></path></g></svg></g></svg>