<svg id="SvgjsSvg1605" width="288" height="288" xmlns="http://www.w3.org/2000/svg" version="1.1" xmlns:xlink="http://www.w3.org/1999/xlink" xmlns:svgjs="http://svgjs.com/svgjs"><defs id="SvgjsDefs1606"></defs><g id="SvgjsG1607"><svg xmlns="http://www.w3.org/2000/svg" width="288" height="288" viewBox="0 0 80 80"><g transform="translate(-989.691 -1623.246)" fill="#ffffff" class="color000 svgShape"><g fill="none" stroke="#005e19" stroke-width="2" transform="translate(989.691 1623.246)" class="colorStrokefff svgStroke"><circle cx="40" cy="40" r="40" stroke="none" fill="#ffffff" class="color000 svgShape"></circle><circle cx="40" cy="40" r="39" fill="#ffffff" class="color000 svgShape"></circle></g><path fill="none" stroke="#005e19" stroke-linejoin="round" stroke-width="2" d="M21.211,51.272l-.215.2C1.613,40.819,0,21.043,0,8.173A52.305,52.305,0,0,0,21,0s.076.123.215.355C21.35.123,21.426,0,21.426,0A52.29,52.29,0,0,0,42.42,8.173c0,12.871-1.613,32.647-20.994,43.3Z" transform="translate(1007.746 1638.4)" class="colorStrokefff svgStroke"></path><g fill="none" stroke="#005e19" stroke-width="2" transform="translate(1015.438 1647.639)" class="colorStrokefff svgStroke"><circle cx="13.518" cy="13.518" r="13.518" stroke="none" fill="#ffffff" class="color000 svgShape"></circle><circle cx="13.518" cy="13.518" r="12.518" fill="#ffffff" class="color000 svgShape"></circle></g><g fill="none" stroke="#005e19" stroke-width="2" transform="translate(1022.238 1647.639)" class="colorStrokefff svgStroke"><ellipse cx="6.719" cy="13.518" stroke="none" rx="6.719" ry="13.518" fill="#ffffff" class="color000 svgShape"></ellipse><ellipse cx="6.719" cy="13.518" rx="5.719" ry="12.518" fill="#ffffff" class="color000 svgShape"></ellipse></g><path fill="none" stroke="#005e19" stroke-width="2" d="M-13601.931,18780.246h24.853" transform="translate(14618.99 -17119.09)" class="colorStrokefff svgStroke"></path></g></svg></g></svg>