<svg id="SvgjsSvg1104" width="288" height="288" xmlns="http://www.w3.org/2000/svg" version="1.1" xmlns:xlink="http://www.w3.org/1999/xlink" xmlns:svgjs="http://svgjs.com/svgjs"><defs id="SvgjsDefs1105"></defs><g id="SvgjsG1106"><svg xmlns="http://www.w3.org/2000/svg" width="288" height="288" viewBox="0 0 80 80"><g transform="translate(-1389.691 -1017.617)" fill="#ffffff" class="color000 svgShape"><g fill="none" stroke="#005e19" stroke-width="2" transform="translate(1389.691 1017.617)" class="colorStrokefff svgStroke"><circle cx="40" cy="40" r="40" stroke="none" fill="#ffffff" class="color000 svgShape"></circle><circle cx="40" cy="40" r="39" fill="#ffffff" class="color000 svgShape"></circle></g><g fill="none" stroke="#005e19" stroke-width="2" transform="translate(1405.369 1045.674)" class="colorStrokefff svgStroke"><ellipse cx="10" cy="3" stroke="none" rx="10" ry="3" fill="#ffffff" class="color000 svgShape"></ellipse><ellipse cx="10" cy="3" rx="9" ry="2" fill="#ffffff" class="color000 svgShape"></ellipse></g><g fill="none" stroke="#005e19" stroke-width="2" transform="translate(1432.412 1055.551)" class="colorStrokefff svgStroke"><ellipse cx="10" cy="3" stroke="none" rx="10" ry="3" fill="#ffffff" class="color000 svgShape"></ellipse><ellipse cx="10" cy="3" rx="9" ry="2" fill="#ffffff" class="color000 svgShape"></ellipse></g><path fill="none" stroke="#005e19" stroke-width="2" d="M0-14.182V3C0,4.421,4.025,5.572,8.99,5.572S17.98,4.421,17.98,3V-14.182" transform="translate(1406.379 1062.889)" class="colorStrokefff svgStroke"></path><path fill="none" stroke="#005e19" stroke-width="2" d="M0-14.182V3C0,4.421,4.025,5.572,8.99,5.572S17.98,4.421,17.98,3V-14.182" transform="translate(1433.422 1072.766)" class="colorStrokefff svgStroke"></path><path fill="none" stroke="#005e19" stroke-width="2" d="M17.98,3c0,1.421-4.025,2.572-8.99,2.572S0,4.421,0,3" transform="translate(1406.379 1056.889)" class="colorStrokefff svgStroke"></path><path fill="none" stroke="#005e19" stroke-width="2" d="M17.98,3c0,1.421-4.025,2.572-8.99,2.572S0,4.421,0,3" transform="translate(1433.422 1066.766)" class="colorStrokefff svgStroke"></path><path fill="none" stroke="#005e19" stroke-width="2" d="M17.98,3c0,1.421-4.025,2.572-8.99,2.572S0,4.421,0,3" transform="translate(1406.379 1050.889)" class="colorStrokefff svgStroke"></path><path fill="none" stroke="#005e19" stroke-width="2" d="M17.98,3c0,1.421-4.025,2.572-8.99,2.572S0,4.421,0,3" transform="translate(1433.422 1060.766)" class="colorStrokefff svgStroke"></path><path fill="none" stroke="#005e19" stroke-linecap="round" stroke-width="2" d="M-13129.794,18154.252c.69-13.98,24.227-15.3,25.137,9.455" transform="translate(14547.37 -17111.945)" class="colorStrokefff svgStroke"></path><path fill="none" stroke="#005e19" stroke-linecap="round" stroke-width="2" d="M-13113.948,18167.121l3.316,3.316,3.316-3.316" transform="translate(14553.044 -17117.945)" class="colorStrokefff svgStroke"></path></g></svg></g></svg>