<svg id="SvgjsSvg1061" width="288" height="288" xmlns="http://www.w3.org/2000/svg" version="1.1" xmlns:xlink="http://www.w3.org/1999/xlink" xmlns:svgjs="http://svgjs.com/svgjs"><defs id="SvgjsDefs1062"></defs><g id="SvgjsG1063"><svg xmlns="http://www.w3.org/2000/svg" width="288" height="288" viewBox="0 0 80 80"><g transform="translate(-606.457 -1727.35)" fill="#ffffff" class="color000 svgShape"><g fill="none" stroke="#004a75" stroke-width="2" transform="translate(606.457 1727.35)" class="colorStrokefff svgStroke"><circle cx="40" cy="40" r="40" stroke="none" fill="#ffffff" class="color000 svgShape"></circle><circle cx="40" cy="40" r="39" fill="#ffffff" class="color000 svgShape"></circle></g><g fill="none" stroke="#004a75" stroke-width="2" transform="translate(623 1747)" class="colorStrokefff svgStroke"><rect width="13" height="13" stroke="none" rx="1" fill="#ffffff" class="color000 svgShape"></rect><rect width="11" height="11" x="1" y="1" fill="#ffffff" class="color000 svgShape"></rect></g><g fill="none" stroke="#004a75" stroke-width="2" transform="translate(640 1747)" class="colorStrokefff svgStroke"><rect width="13" height="13" stroke="none" rx="1" fill="#ffffff" class="color000 svgShape"></rect><rect width="11" height="11" x="1" y="1" fill="#ffffff" class="color000 svgShape"></rect></g><g fill="none" stroke="#004a75" stroke-width="2" transform="translate(632 1773)" class="colorStrokefff svgStroke"><rect width="13" height="13" stroke="none" rx="1" fill="#ffffff" class="color000 svgShape"></rect><rect width="11" height="11" x="1" y="1" fill="#ffffff" class="color000 svgShape"></rect></g><g fill="none" stroke="#004a75" stroke-width="2" transform="translate(657 1747)" class="colorStrokefff svgStroke"><rect width="13" height="13" stroke="none" rx="1" fill="#ffffff" class="color000 svgShape"></rect><rect width="11" height="11" x="1" y="1" fill="#ffffff" class="color000 svgShape"></rect></g><g fill="none" stroke="#004a75" stroke-width="2" transform="translate(649 1773)" class="colorStrokefff svgStroke"><rect width="13" height="13" stroke="none" rx="1" fill="#ffffff" class="color000 svgShape"></rect><rect width="11" height="11" x="1" y="1" fill="#ffffff" class="color000 svgShape"></rect></g><path fill="none" stroke="#004a75" stroke-width="2" d="M-13995.5,18876.148v7.2h33.656v-7.895" transform="translate(14625.457 -17117)" class="colorStrokefff svgStroke"></path><path fill="none" stroke="#004a75" stroke-width="2" d="M-13974.215,18875.852v7.369" transform="translate(14621 -17117)" class="colorStrokefff svgStroke"></path><path fill="none" stroke="#004a75" stroke-width="2" d="M-13974.215,18875.852v7.369" transform="translate(14612.715 -17109)" class="colorStrokefff svgStroke"></path><path fill="none" stroke="#004a75" stroke-width="2" d="M-13974.215,18875.852v7.369" transform="translate(14629.715 -17109)" class="colorStrokefff svgStroke"></path></g></svg></g></svg>