<svg id="SvgjsSvg1136" width="288" height="288" xmlns="http://www.w3.org/2000/svg" version="1.1" xmlns:xlink="http://www.w3.org/1999/xlink" xmlns:svgjs="http://svgjs.com/svgjs"><defs id="SvgjsDefs1137"></defs><g id="SvgjsG1138"><svg xmlns="http://www.w3.org/2000/svg" width="288" height="288" viewBox="0 0 80 80"><g transform="translate(-989.691 -1217.727)" fill="#ffffff" class="color000 svgShape"><g fill="none" stroke="#005e19" stroke-width="2" transform="translate(989.691 1217.727)" class="colorStrokefff svgStroke"><circle cx="40" cy="40" r="40" stroke="none" fill="#ffffff" class="color000 svgShape"></circle><circle cx="40" cy="40" r="39" fill="#ffffff" class="color000 svgShape"></circle></g><g fill="none" stroke="#005e19" stroke-width="2" transform="translate(1012.65 1229)" class="colorStrokefff svgStroke"><rect width="32" height="54" stroke="none" rx="3" fill="#ffffff" class="color000 svgShape"></rect><rect width="30" height="52" x="1" y="1" rx="2" fill="#ffffff" class="color000 svgShape"></rect></g><g fill="none" stroke="#005e19" stroke-width="2" transform="translate(1024.65 1272)" class="colorStrokefff svgStroke"><circle cx="4" cy="4" r="4" stroke="none" fill="#ffffff" class="color000 svgShape"></circle><circle cx="4" cy="4" r="3" fill="#ffffff" class="color000 svgShape"></circle></g><g fill="none" stroke="#005e19" stroke-width="2" transform="translate(1023.65 1229)" class="colorStrokefff svgStroke"><path stroke="none" d="M1,0H9a1,1,0,0,1,1,1V4A2,2,0,0,1,8,6H2A2,2,0,0,1,0,4V1A1,1,0,0,1,1,0Z" fill="#ffffff" class="color000 svgShape"></path><path d="M1,1H9A0,0,0,0,1,9,1V4A1,1,0,0,1,8,5H2A1,1,0,0,1,1,4V1A0,0,0,0,1,1,1Z" fill="#ffffff" class="color000 svgShape"></path></g></g></svg></g></svg>