<svg id="SvgjsSvg1001" width="288" height="288" xmlns="http://www.w3.org/2000/svg" version="1.1" xmlns:xlink="http://www.w3.org/1999/xlink" xmlns:svgjs="http://svgjs.com/svgjs"><defs id="SvgjsDefs1002"></defs><g id="SvgjsG1008"><svg xmlns="http://www.w3.org/2000/svg" width="288" height="288" viewBox="0 0 84.461 84.461"><g transform="translate(-603.227 -1524.496)" fill="#ffffff" class="color000 svgShape"><g fill="none" stroke="#005e19" stroke-width="2" transform="translate(603.227 1524.496)" class="colorStrokefff svgStroke"><circle cx="42.231" cy="42.231" r="42.231" stroke="none" fill="#ffffff" class="color000 svgShape"></circle><circle cx="42.231" cy="42.231" r="41.231" fill="#ffffff" class="color000 svgShape"></circle></g><path fill="none" stroke="#005e19" stroke-linecap="round" stroke-linejoin="round" stroke-width="2" d="M44,.272A23.338,23.338,0,0,1,67.339,23.61a24.244,24.244,0,0,1-.253,3.427" transform="rotate(-103 959.053 556.146)" class="colorStrokefff svgStroke"></path><path fill="none" stroke="#005e19" stroke-linecap="round" stroke-linejoin="round" stroke-width="2" d="M44,.272a23.3,23.3,0,0,1,21.959,31.2" transform="rotate(11 -7672.773 3920.892)" class="colorStrokefff svgStroke"></path><path fill="none" stroke="#005e19" stroke-linecap="round" stroke-linejoin="round" stroke-width="2" d="M-14415.9-7405.385l-2.94,2.5,2.94,2.717" transform="rotate(11 -53346.4 75315.892)" class="colorStrokefff svgStroke"></path><g transform="rotate(124 646.003 1567.63)" fill="#ffffff" class="color000 svgShape"><path fill="none" stroke="#005e19" stroke-linecap="round" stroke-linejoin="round" stroke-width="2" d="M44,.272a23.3,23.3,0,0,1,21.959,31.2" transform="rotate(11 -7672.773 3920.892)" class="colorStrokefff svgStroke"></path><path fill="none" stroke="#005e19" stroke-linecap="round" stroke-linejoin="round" stroke-width="2" d="M-14415.9-7405.385l-2.94,2.5,2.94,2.717" transform="rotate(11 -53346.4 75315.892)" class="colorStrokefff svgStroke"></path></g><path fill="none" stroke="#005e19" stroke-linecap="round" stroke-linejoin="round" stroke-width="2" d="M-14415.9-7405.385l-2.94,2.5,2.94,2.717" transform="rotate(-103 -3327.537 -8897.241)" class="colorStrokefff svgStroke"></path><g fill="none" stroke="#005e19" stroke-width="2" transform="translate(635.65 1556.457)" class="colorStrokefff svgStroke"><ellipse cx="10" cy="3" stroke="none" rx="10" ry="3" fill="#ffffff" class="color000 svgShape"></ellipse><ellipse cx="10" cy="3" rx="9" ry="2" fill="#ffffff" class="color000 svgShape"></ellipse></g><path fill="none" stroke="#005e19" stroke-width="2" d="M0-14.182V3C0,4.421,4.025,5.572,8.99,5.572S17.98,4.421,17.98,3V-14.182" transform="translate(636.66 1573.672)" class="colorStrokefff svgStroke"></path><path fill="none" stroke="#005e19" stroke-width="2" d="M17.98,3c0,1.421-4.025,2.572-8.99,2.572S0,4.421,0,3" transform="translate(636.66 1567.672)" class="colorStrokefff svgStroke"></path><path fill="none" stroke="#005e19" stroke-width="2" d="M17.98,3c0,1.421-4.025,2.572-8.99,2.572S0,4.421,0,3" transform="translate(636.66 1561.672)" class="colorStrokefff svgStroke"></path></g></svg></g></svg>