<svg id="SvgjsSvg1347" width="288" height="288" xmlns="http://www.w3.org/2000/svg" version="1.1" xmlns:xlink="http://www.w3.org/1999/xlink" xmlns:svgjs="http://svgjs.com/svgjs"><defs id="SvgjsDefs1348"></defs><g id="SvgjsG1349"><svg xmlns="http://www.w3.org/2000/svg" width="288" height="288" viewBox="0 0 80 80"><g transform="translate(-168.957 -1214.754)" fill="#ffffff" class="color000 svgShape"><g fill="none" stroke="#005e19" stroke-width="2" transform="translate(168.957 1214.754)" class="colorStrokefff svgStroke"><circle cx="40" cy="40" r="40" stroke="none" fill="#ffffff" class="color000 svgShape"></circle><circle cx="40" cy="40" r="39" fill="#ffffff" class="color000 svgShape"></circle></g><g fill="none" stroke="#005e19" stroke-width="2" transform="translate(198.017 1258.391)" class="colorStrokefff svgStroke"><rect width="33.738" height="12.88" stroke="none" rx="4" fill="#ffffff" class="color000 svgShape"></rect><rect width="31.738" height="10.88" x="1" y="1" rx="3" fill="#ffffff" class="color000 svgShape"></rect></g><g fill="none" transform="translate(192.395 1249.082)"><path d="M27.955,28.391H2.83A2.979,2.979,0,0,1,0,25.289V3.1A2.979,2.979,0,0,1,2.83,0H27.955a2.979,2.979,0,0,1,2.83,3.1V9.31H9.623a4.005,4.005,0,0,0-4,4v4.88a4,4,0,0,0,4,4H30.785v3.1A2.979,2.979,0,0,1,27.955,28.391Z" fill="#ffffff" class="color000 svgShape"></path><path fill="#005e19" d="M 27.95490074157715 28.39140129089355 C 29.51564025878906 28.39140129089355 30.785400390625 26.99971008300781 30.785400390625 25.28910064697266 L 30.785400390625 22.18950080871582 L 9.622799873352051 22.18950080871582 C 7.416920185089111 22.18950080871582 5.622300148010254 20.39529037475586 5.622300148010254 18.18990135192871 L 5.622300148010254 13.31010055541992 C 5.622300148010254 11.10422039031982 7.416920185089111 9.309600830078125 9.622799873352051 9.309600830078125 L 30.785400390625 9.309600830078125 L 30.785400390625 3.102300643920898 C 30.785400390625 1.391690611839294 29.51564025878906 6.454467893490801e-07 27.95490074157715 6.454467893490801e-07 L 2.83050012588501 6.454467893490801e-07 C 1.269760251045227 6.454467893490801e-07 1.953124950659912e-07 1.391690611839294 1.953124950659912e-07 3.102300643920898 L 1.953124950659912e-07 25.28910064697266 C 1.953124950659912e-07 26.99971008300781 1.269760251045227 28.39140129089355 2.83050012588501 28.39140129089355 L 27.95490074157715 28.39140129089355 M 27.95490074157715 30.39140129089355 L 2.83050012588501 30.39140129089355 C 0.1669501960277557 30.39140129089355 -1.999999761581421 28.10251998901367 -1.999999761581421 25.28910064697266 L -1.999999761581421 3.102300643920898 C -1.999999761581421 0.2888806462287903 0.1669501960277557 -1.999999403953552 2.83050012588501 -1.999999403953552 L 27.95490074157715 -1.999999403953552 C 30.61845016479492 -1.999999403953552 32.785400390625 0.2888806462287903 32.785400390625 3.102300643920898 L 32.785400390625 11.30960083007812 L 9.622799873352051 11.30960083007812 C 8.519720077514648 11.30960083007812 7.622300148010254 12.20702075958252 7.622300148010254 13.31010055541992 L 7.622300148010254 18.18990135192871 C 7.622300148010254 19.29248046875 8.519720077514648 20.18950080871582 9.622799873352051 20.18950080871582 L 32.785400390625 20.18950080871582 L 32.785400390625 25.28910064697266 C 32.785400390625 28.10251998901367 30.61845016479492 30.39140129089355 27.95490074157715 30.39140129089355 Z" class="colorfff svgShape"></path></g><g fill="none" stroke="#005e19" stroke-width="2" transform="translate(202.303 1263.658)" class="colorStrokefff svgStroke"><circle cx="1.533" cy="1.533" r="1.533" stroke="none" fill="#ffffff" class="color000 svgShape"></circle><circle cx="1.533" cy="1.533" r=".533" fill="#ffffff" class="color000 svgShape"></circle></g><g fill="none" stroke="#005e19" stroke-width="2" transform="translate(207.73 1263.658)" class="colorStrokefff svgStroke"><circle cx="1.533" cy="1.533" r="1.533" stroke="none" fill="#ffffff" class="color000 svgShape"></circle><circle cx="1.533" cy="1.533" r=".533" fill="#ffffff" class="color000 svgShape"></circle></g><g fill="none" stroke="#005e19" stroke-width="2" transform="translate(213.159 1263.658)" class="colorStrokefff svgStroke"><circle cx="1.533" cy="1.533" r="1.533" stroke="none" fill="#ffffff" class="color000 svgShape"></circle><circle cx="1.533" cy="1.533" r=".533" fill="#ffffff" class="color000 svgShape"></circle></g><g fill="none" stroke="#005e19" stroke-width="2" transform="translate(218.589 1263.658)" class="colorStrokefff svgStroke"><circle cx="1.533" cy="1.533" r="1.533" stroke="none" fill="#ffffff" class="color000 svgShape"></circle><circle cx="1.533" cy="1.533" r=".533" fill="#ffffff" class="color000 svgShape"></circle></g><g fill="none" stroke="#005e19" stroke-width="2" transform="translate(224.018 1263.658)" class="colorStrokefff svgStroke"><circle cx="1.533" cy="1.533" r="1.533" stroke="none" fill="#ffffff" class="color000 svgShape"></circle><circle cx="1.533" cy="1.533" r=".533" fill="#ffffff" class="color000 svgShape"></circle></g><path fill="none" stroke="#005e19" stroke-width="2" d="M.484,0h10a10.357,10.357,0,1,1,0,20.715H0" transform="rotate(-90 723.095 525.987)" class="colorStrokefff svgStroke"></path><path fill="none" stroke="#005e19" stroke-width="2" d="M.251,0H9.809a6.619,6.619,0,1,1,0,13.238H0" transform="rotate(-90 724.638 523.79)" class="colorStrokefff svgStroke"></path></g></svg></g></svg>