<svg id="SvgjsSvg1048" width="288" height="288" xmlns="http://www.w3.org/2000/svg" version="1.1" xmlns:xlink="http://www.w3.org/1999/xlink" xmlns:svgjs="http://svgjs.com/svgjs"><defs id="SvgjsDefs1049"></defs><g id="SvgjsG1050"><svg xmlns="http://www.w3.org/2000/svg" width="288" height="288" viewBox="0 0 80 80"><g transform="translate(-168.957 -1727.35)" fill="#ffffff" class="color000 svgShape"><g fill="none" stroke="#004a75" stroke-width="2" transform="translate(168.957 1727.35)" class="colorStrokefff svgStroke"><circle cx="40" cy="40" r="40" stroke="none" fill="#ffffff" class="color000 svgShape"></circle><circle cx="40" cy="40" r="39" fill="#ffffff" class="color000 svgShape"></circle></g><g fill="none" stroke="#004a75" stroke-width="2" transform="translate(183 1746.859)" class="colorStrokefff svgStroke"><path stroke="none" d="M4,0H41a4,4,0,0,1,4,4V32a0,0,0,0,1,0,0H0a0,0,0,0,1,0,0V4A4,4,0,0,1,4,0Z" fill="#ffffff" class="color000 svgShape"></path><path d="M4,1H41a3,3,0,0,1,3,3V31a0,0,0,0,1,0,0H1a0,0,0,0,1,0,0V4A3,3,0,0,1,4,1Z" fill="#ffffff" class="color000 svgShape"></path></g><path fill="none" stroke="#004a75" stroke-width="2" d="M-14433.8,18871.467h42.689" transform="translate(14618 -17117.141)" class="colorStrokefff svgStroke"></path><path fill="none" stroke="#004a75" stroke-width="2" d="M-14417.462 18884.785l3.729 3.729 9.426-9.426M-14404.942 18897.49v9.492h19.691v-19.809h-5.542" transform="translate(14618 -17119.141)" class="colorStrokefff svgStroke"></path></g></svg></g></svg>