<svg id="SvgjsSvg1153" width="288" height="288" xmlns="http://www.w3.org/2000/svg" version="1.1" xmlns:xlink="http://www.w3.org/1999/xlink" xmlns:svgjs="http://svgjs.com/svgjs"><defs id="SvgjsDefs1154"></defs><g id="SvgjsG1155"><svg xmlns="http://www.w3.org/2000/svg" width="288" height="288" viewBox="0 0 80 80"><g transform="translate(-989.691 -1312.471)" fill="#ffffff" class="color000 svgShape"><g fill="none" stroke="#005e19" stroke-width="2" transform="translate(989.691 1312.471)" class="colorStrokefff svgStroke"><circle cx="40" cy="40" r="40" stroke="none" fill="#ffffff" class="color000 svgShape"></circle><circle cx="40" cy="40" r="39" fill="#ffffff" class="color000 svgShape"></circle></g><path fill="none" stroke="#005e19" stroke-linecap="round" stroke-width="2" d="M-14339.7,18891.053h15.174" transform="translate(15353.818 -17518.168)" class="colorStrokefff svgStroke"></path><path fill="none" stroke="#005e19" stroke-width="2" d="M-14337.858,18886.594v5.943" transform="translate(15355.691 -17519.652)" class="colorStrokefff svgStroke"></path><path fill="none" stroke="#005e19" stroke-width="2" d="M-14337.858,18886.594v5.943" transform="translate(15363.369 -17519.652)" class="colorStrokefff svgStroke"></path><g fill="none" stroke="#005e19" stroke-width="2" transform="translate(1043.65 1339)" class="colorStrokefff svgStroke"><circle cx="3" cy="3" r="3" stroke="none" fill="#ffffff" class="color000 svgShape"></circle><circle cx="3" cy="3" r="2" fill="#ffffff" class="color000 svgShape"></circle></g><g fill="none" transform="translate(-13617.35 17930)"><path d="M14666-16558h-11a2,2,0,0,1-2-2v-2h2a2,2,0,0,0,2-2v-21a2,2,0,0,0-2-2h-2v-3a2,2,0,0,1,2-2h11a2.007,2.007,0,0,1,2,2v30A2,2,0,0,1,14666-16558Z" fill="#ffffff" class="color000 svgShape"></path><path fill="#005e19" d="M 14665.998046875 -16558.001953125 C 14667.1025390625 -16558.001953125 14668.0009765625 -16558.8984375 14668.0009765625 -16560 L 14668.0009765625 -16589.998046875 C 14668.0009765625 -16591.1015625 14667.1025390625 -16592.001953125 14665.998046875 -16592.001953125 L 14655.0009765625 -16592.001953125 C 14653.8984375 -16592.001953125 14653.001953125 -16591.1015625 14653.001953125 -16589.998046875 L 14653.001953125 -16587 L 14655.0009765625 -16587 C 14656.1025390625 -16587 14656.9990234375 -16586.103515625 14656.9990234375 -16585.001953125 L 14656.9990234375 -16563.998046875 C 14656.9990234375 -16562.896484375 14656.1025390625 -16562 14655.0009765625 -16562 L 14653.001953125 -16562 L 14653.001953125 -16560 C 14653.001953125 -16558.8984375 14653.8984375 -16558.001953125 14655.0009765625 -16558.001953125 L 14665.998046875 -16558.001953125 M 14665.998046875 -16556.001953125 L 14655.0009765625 -16556.001953125 C 14652.7958984375 -16556.001953125 14651.001953125 -16557.794921875 14651.001953125 -16560 L 14651.001953125 -16564 L 14654.9990234375 -16564 C 14654.9990234375 -16564 14654.9990234375 -16564 14654.9990234375 -16564 L 14654.9990234375 -16585 C 14654.9990234375 -16585 14654.9990234375 -16585 14654.9990234375 -16585 L 14651.001953125 -16585 L 14651.001953125 -16589.998046875 C 14651.001953125 -16592.205078125 14652.7958984375 -16594.001953125 14655.0009765625 -16594.001953125 L 14665.998046875 -16594.001953125 C 14668.205078125 -16594.001953125 14670.0009765625 -16592.205078125 14670.0009765625 -16589.998046875 L 14670.0009765625 -16560 C 14670.0009765625 -16557.794921875 14668.205078125 -16556.001953125 14665.998046875 -16556.001953125 Z" class="colorfff svgShape"></path></g><g fill="none" stroke="#005e19" stroke-width="2" transform="translate(1003.65 1343)" class="colorStrokefff svgStroke"><rect width="36" height="25" stroke="none" rx="2" fill="#ffffff" class="color000 svgShape"></rect><rect width="34" height="23" x="1" y="1" rx="1" fill="#ffffff" class="color000 svgShape"></rect></g></g></svg></g></svg>