<svg id="SvgjsSvg1458" width="288" height="288" xmlns="http://www.w3.org/2000/svg" version="1.1" xmlns:xlink="http://www.w3.org/1999/xlink" xmlns:svgjs="http://svgjs.com/svgjs"><defs id="SvgjsDefs1459"></defs><g id="SvgjsG1460"><svg xmlns="http://www.w3.org/2000/svg" width="288" height="288" viewBox="0 0 80 80"><g transform="translate(-168.957 -1116.754)" fill="#ffffff" class="color000 svgShape"><g fill="none" stroke="#005e19" stroke-width="2" transform="translate(168.957 1116.754)" class="colorStrokefff svgStroke"><circle cx="40" cy="40" r="40" stroke="none" fill="#ffffff" class="color000 svgShape"></circle><circle cx="40" cy="40" r="39" fill="#ffffff" class="color000 svgShape"></circle></g><path fill="none" stroke="#005e19" stroke-linejoin="round" stroke-width="2" d="M19.29,47.577l-.2.189C1.467,37.877,0,19.526,0,7.583A47.067,47.067,0,0,0,19.094,0s.069.114.2.33c.126-.216.2-.329.2-.33A47.053,47.053,0,0,0,38.577,7.583c0,11.943-1.467,30.293-19.092,40.183Z" transform="translate(189.668 1132.871)" class="colorStrokefff svgStroke"></path><path fill="none" stroke="#005e19" stroke-width="2" d="M0,9.335V4.749a4.75,4.75,0,0,1,9.5,0V9.558" transform="translate(204.03 1144.004)" class="colorStrokefff svgStroke"></path><g fill="none" stroke="#005e19" stroke-width="2" transform="translate(201.089 1151.43)" class="colorStrokefff svgStroke"><rect width="15.736" height="14.949" stroke="none" rx="4" fill="#ffffff" class="color000 svgShape"></rect><rect width="13.736" height="12.949" x="1" y="1" rx="3" fill="#ffffff" class="color000 svgShape"></rect></g></g></svg></g></svg>