<svg id="SvgjsSvg1026" width="288" height="288" xmlns="http://www.w3.org/2000/svg" version="1.1" xmlns:xlink="http://www.w3.org/1999/xlink" xmlns:svgjs="http://svgjs.com/svgjs"><defs id="SvgjsDefs1027"></defs><g id="SvgjsG1028"><svg xmlns="http://www.w3.org/2000/svg" width="288" height="288" viewBox="0 0 80 80"><g transform="translate(-606.457 -1625.535)" fill="#ffffff" class="color000 svgShape"><g fill="none" stroke="#004a75" stroke-width="2" transform="translate(606.457 1625.535)" class="colorStrokefff svgStroke"><circle cx="40" cy="40" r="40" stroke="none" fill="#ffffff" class="color000 svgShape"></circle><circle cx="40" cy="40" r="39" fill="#ffffff" class="color000 svgShape"></circle></g><g transform="rotate(30 -2744.027 2050.54)" fill="#ffffff" class="color000 svgShape"><path fill="none" stroke="#004a75" stroke-linecap="round" stroke-linejoin="round" stroke-width="2" d="M0,0H1.42a1.116,1.116,0,0,1,1.1,1.132v9.06a1.116,1.116,0,0,1-1.1,1.132H0" transform="translate(12.772)" class="colorStrokefff svgStroke"></path><path fill="none" stroke="#004a75" stroke-linecap="round" stroke-linejoin="round" stroke-width="2" d="M10.781,32.761h.009V43.917A8.5,8.5,0,0,1,6.462,43.3,4.454,4.454,0,0,1,6,43.068a9.324,9.324,0,0,1-2.722-2.448C-.044,36.091,0,21.048,0,21.048S.037,8.591,2.869,4.011A9.457,9.457,0,0,1,6,.913,3.624,3.624,0,0,1,6.463.679,8.5,8.5,0,0,1,10.791.064V11.219h0a4.04,4.04,0,0,0-4.012,3.459,59.3,59.3,0,0,0-.432,6.773,45.956,45.956,0,0,0,.425,7.862A4.066,4.066,0,0,0,10.781,32.761Z" class="colorStrokefff svgStroke"></path><path fill="none" stroke="#004a75" stroke-linecap="round" stroke-linejoin="round" stroke-width="2" d="M0,11.325H1.42a1.116,1.116,0,0,0,1.1-1.132V1.132A1.116,1.116,0,0,0,1.42,0H0" transform="translate(12.771 32.655)" class="colorStrokefff svgStroke"></path></g><g fill="none" transform="translate(-14000.834 18232.795)"><path d="M14637.562-16558.877a16.45,16.45,0,0,1-11.711-4.852,16.45,16.45,0,0,1-4.85-11.709,16.463,16.463,0,0,1,4.85-11.713,16.45,16.45,0,0,1,11.711-4.852,16.494,16.494,0,0,1,11.3,4.461,16.5,16.5,0,0,1,5.212,10.9c-.651.785-1.331,1.662-2.021,2.607.043-.459.066-.932.066-1.4a14.461,14.461,0,0,0-4.264-10.3,14.48,14.48,0,0,0-10.3-4.264,14.484,14.484,0,0,0-10.3,4.264,14.461,14.461,0,0,0-4.264,10.3,14.457,14.457,0,0,0,4.264,10.295,14.479,14.479,0,0,0,10.3,4.268,14.477,14.477,0,0,0,7.961-2.365c-.519,1.037-1.006,2.059-1.445,3.031A16.452,16.452,0,0,1,14637.562-16558.877Z" fill="#ffffff" class="color000 svgShape"></path><path fill="#004a75" d="M 14630.8798828125 -16561.375 C 14629.818359375 -16561.880859375 14628.8125 -16562.509765625 14627.8798828125 -16563.25390625 C 14628.8125 -16562.509765625 14629.8173828125 -16561.880859375 14630.8798828125 -16561.375 M 14626.0869140625 -16585.951171875 C 14626.240234375 -16586.119140625 14626.396484375 -16586.28125 14626.5576171875 -16586.44140625 C 14629.5 -16589.380859375 14633.408203125 -16590.998046875 14637.5615234375 -16590.998046875 C 14639.150390625 -16590.998046875 14640.7041015625 -16590.76171875 14642.1806640625 -16590.3046875 C 14640.701171875 -16590.763671875 14639.146484375 -16591.001953125 14637.5615234375 -16591.001953125 C 14633.404296875 -16591.001953125 14629.49609375 -16589.3828125 14626.5576171875 -16586.443359375 C 14626.3974609375 -16586.283203125 14626.240234375 -16586.119140625 14626.0869140625 -16585.951171875 M 14637.5615234375 -16558.876953125 C 14633.1376953125 -16558.876953125 14628.978515625 -16560.599609375 14625.8505859375 -16563.728515625 C 14622.7236328125 -16566.85546875 14621.0009765625 -16571.013671875 14621.0009765625 -16575.4375 C 14621.0009765625 -16579.861328125 14622.7236328125 -16584.021484375 14625.8505859375 -16587.150390625 C 14628.978515625 -16590.279296875 14633.1376953125 -16592.001953125 14637.5615234375 -16592.001953125 C 14641.775390625 -16592.001953125 14645.7900390625 -16590.41796875 14648.8662109375 -16587.541015625 C 14651.9267578125 -16584.681640625 14653.7783203125 -16580.810546875 14654.078125 -16576.642578125 C 14653.4267578125 -16575.857421875 14652.7470703125 -16574.98046875 14652.056640625 -16574.03515625 C 14652.099609375 -16574.494140625 14652.123046875 -16574.966796875 14652.123046875 -16575.4375 C 14652.123046875 -16579.328125 14650.609375 -16582.986328125 14647.859375 -16585.734375 C 14645.10546875 -16588.484375 14641.4482421875 -16589.998046875 14637.5615234375 -16589.998046875 C 14633.67578125 -16589.998046875 14630.0185546875 -16588.484375 14627.263671875 -16585.734375 C 14624.513671875 -16582.986328125 14623 -16579.328125 14623 -16575.4375 C 14623 -16571.546875 14624.513671875 -16567.890625 14627.263671875 -16565.142578125 C 14630.0185546875 -16562.390625 14633.67578125 -16560.875 14637.5615234375 -16560.875 C 14640.41015625 -16560.875 14643.1630859375 -16561.693359375 14645.5224609375 -16563.240234375 C 14645.00390625 -16562.203125 14644.5166015625 -16561.181640625 14644.0771484375 -16560.208984375 C 14642.0166015625 -16559.326171875 14639.82421875 -16558.876953125 14637.5615234375 -16558.876953125 Z" class="colorfff svgShape"></path></g><g fill="none" stroke="#004a75" stroke-width="2" transform="translate(625.475 1640.793)" class="colorStrokefff svgStroke"><ellipse cx="11.231" cy="16.562" stroke="none" rx="11.231" ry="16.562" fill="#ffffff" class="color000 svgShape"></ellipse><ellipse cx="11.231" cy="16.562" rx="10.231" ry="15.562" fill="#ffffff" class="color000 svgShape"></ellipse></g><g fill="none" stroke="#004a75" stroke-width="2" transform="translate(631.475 1640.793)" class="colorStrokefff svgStroke"><ellipse cx="5.231" cy="16.562" stroke="none" rx="5.231" ry="16.562" fill="#ffffff" class="color000 svgShape"></ellipse><ellipse cx="5.231" cy="16.562" rx="4.231" ry="15.562" fill="#ffffff" class="color000 svgShape"></ellipse></g><path fill="none" stroke="#004a75" stroke-width="2" d="M-13601.931,18780.246h30.447" transform="translate(14223.413 -17122.891)" class="colorStrokefff svgStroke"></path></g></svg></g></svg>