<svg id="SvgjsSvg1251" width="288" height="288" xmlns="http://www.w3.org/2000/svg" version="1.1" xmlns:xlink="http://www.w3.org/1999/xlink" xmlns:svgjs="http://svgjs.com/svgjs"><defs id="SvgjsDefs1252"></defs><g id="SvgjsG1253"><svg xmlns="http://www.w3.org/2000/svg" width="288" height="288" viewBox="0 0 80 80"><g transform="translate(-1389.691 -1623.064)" fill="#ffffff" class="color000 svgShape"><g fill="none" stroke="#005e19" stroke-width="2" transform="translate(1389.691 1623.064)" class="colorStrokefff svgStroke"><circle cx="40" cy="40" r="40" stroke="none" fill="#ffffff" class="color000 svgShape"></circle><circle cx="40" cy="40" r="39" fill="#ffffff" class="color000 svgShape"></circle></g><path fill="#005e19" d="M14664.807-16556.111v-2.023a11.838,11.838,0,0,0,6.671-3.41,12.143,12.143,0,0,0,3.519-8.6,12.13,12.13,0,0,0-3.519-8.59,11.839,11.839,0,0,0-8.478-3.549,11.837,11.837,0,0,0-6.908,2.213l-1.953,1.395-1.021-2.17a16,16,0,0,0-5.742-6.613,15.629,15.629,0,0,0-8.557-2.539,15.651,15.651,0,0,0-11.181,4.676A16.015,16.015,0,0,0,14623-16574a16.021,16.021,0,0,0,4.639,11.326,15.683,15.683,0,0,0,8.17,4.389v2.033a17.8,17.8,0,0,1-10.557-6.078A18.118,18.118,0,0,1,14621-16574a17.976,17.976,0,0,1,5.219-12.727,17.61,17.61,0,0,1,12.6-5.275,17.6,17.6,0,0,1,9.649,2.869,18,18,0,0,1,6.457,7.438,13.8,13.8,0,0,1,8.074-2.59,13.838,13.838,0,0,1,9.9,4.145,14.123,14.123,0,0,1,4.1,10,14.22,14.22,0,0,1-3.517,9.379,13.942,13.942,0,0,1-8.675,4.654Z" transform="translate(-13219.309 18232)" class="colorfff svgShape"></path><g fill="none" stroke="#005e19" stroke-width="2" transform="translate(1415 1671.893)" class="colorStrokefff svgStroke"><rect width="15" height="6.311" stroke="none" rx="1" fill="#ffffff" class="color000 svgShape"></rect><rect width="13" height="4.311" x="1" y="1" fill="#ffffff" class="color000 svgShape"></rect></g><g fill="none" stroke="#005e19" stroke-width="2" transform="translate(1415 1664.58)" class="colorStrokefff svgStroke"><rect width="15" height="6.311" stroke="none" rx="1" fill="#ffffff" class="color000 svgShape"></rect><rect width="13" height="4.311" x="1" y="1" fill="#ffffff" class="color000 svgShape"></rect></g><g fill="none" stroke="#005e19" stroke-width="2" transform="translate(1415 1657.27)" class="colorStrokefff svgStroke"><rect width="15" height="6.311" stroke="none" rx="1" fill="#ffffff" class="color000 svgShape"></rect><rect width="13" height="4.311" x="1" y="1" fill="#ffffff" class="color000 svgShape"></rect></g><g fill="none" stroke="#005e19" stroke-width="2" transform="translate(1431 1671.893)" class="colorStrokefff svgStroke"><rect width="15" height="6.311" stroke="none" rx="1" fill="#ffffff" class="color000 svgShape"></rect><rect width="13" height="4.311" x="1" y="1" fill="#ffffff" class="color000 svgShape"></rect></g><g fill="none" stroke="#005e19" stroke-width="2" transform="translate(1431 1664.58)" class="colorStrokefff svgStroke"><rect width="15" height="6.311" stroke="none" rx="1" fill="#ffffff" class="color000 svgShape"></rect><rect width="13" height="4.311" x="1" y="1" fill="#ffffff" class="color000 svgShape"></rect></g><g fill="none" stroke="#005e19" stroke-width="2" transform="translate(1431 1657.27)" class="colorStrokefff svgStroke"><rect width="15" height="6.311" stroke="none" rx="1" fill="#ffffff" class="color000 svgShape"></rect><rect width="13" height="4.311" x="1" y="1" fill="#ffffff" class="color000 svgShape"></rect></g><g fill="none" stroke="#005e19" stroke-width="2" transform="translate(1419 1679.893)" class="colorStrokefff svgStroke"><rect width="7" height="6" stroke="none" rx="2" fill="#ffffff" class="color000 svgShape"></rect><rect width="5" height="4" x="1" y="1" rx="1" fill="#ffffff" class="color000 svgShape"></rect></g><g fill="none" stroke="#005e19" stroke-width="2" transform="translate(1435 1679.893)" class="colorStrokefff svgStroke"><rect width="7" height="6" stroke="none" rx="2" fill="#ffffff" class="color000 svgShape"></rect><rect width="5" height="4" x="1" y="1" rx="1" fill="#ffffff" class="color000 svgShape"></rect></g><path fill="none" stroke="#005e19" stroke-width="2" d="M-13191.5,18583.133v4.27" transform="translate(14614.26 -16906.191)" class="colorStrokefff svgStroke"></path><path fill="none" stroke="#005e19" stroke-width="2" d="M-13191.5,18583.133v4.27" transform="translate(14630.26 -16906.191)" class="colorStrokefff svgStroke"></path><path fill="none" stroke="#005e19" stroke-width="2" d="M-13191.5,18583.133v2.951" transform="translate(14614.26 -16913.059)" class="colorStrokefff svgStroke"></path><path fill="none" stroke="#005e19" stroke-width="2" d="M-13191.5,18583.133v2.951" transform="translate(14614.26 -16921.059)" class="colorStrokefff svgStroke"></path><path fill="none" stroke="#005e19" stroke-width="2" d="M-13191.5,18583.133v2.951" transform="translate(14630.26 -16913.059)" class="colorStrokefff svgStroke"></path><path fill="none" stroke="#005e19" stroke-width="2" d="M-13191.5,18583.133v2.951" transform="translate(14630.26 -16921.059)" class="colorStrokefff svgStroke"></path><path fill="none" stroke="#005e19" stroke-linejoin="round" stroke-width="2" d="M-13191.5,18583.133v5.373h15.74v-5.373" transform="translate(14614.26 -16898.621)" class="colorStrokefff svgStroke"></path></g></svg></g></svg>