<svg id="SvgjsSvg1060" width="288" height="288" xmlns="http://www.w3.org/2000/svg" version="1.1" xmlns:xlink="http://www.w3.org/1999/xlink" xmlns:svgjs="http://svgjs.com/svgjs"><defs id="SvgjsDefs1061"></defs><g id="SvgjsG1062"><svg xmlns="http://www.w3.org/2000/svg" width="288" height="288" viewBox="0 0 80 80"><defs><clipPath id="a"><rect width="54.294" height="54.533" fill="none" stroke="#2e2655" stroke-width="2" class="colorStrokefff svgStroke"></rect></clipPath></defs><g transform="translate(-606.457 -1927.371)" fill="#ffffff" class="color000 svgShape"><g fill="none" stroke="#2e2655" stroke-width="2" transform="translate(606.457 1927.371)" class="colorStrokefff svgStroke"><circle cx="40" cy="40" r="40" stroke="none" fill="#ffffff" class="color000 svgShape"></circle><circle cx="40" cy="40" r="39" fill="#ffffff" class="color000 svgShape"></circle></g><g clip-path="url(#a)" transform="translate(619.311 1940.561)" fill="#ffffff" class="color000 svgShape"><path fill="none" stroke="#2e2655" stroke-linecap="round" stroke-linejoin="round" stroke-width="2" d="M63.13,176.391a31.067,31.067,0,0,0,5.009,1.421,24.667,24.667,0,0,0,10.734-.839c.456-.151.885-.386,1.326-.582" transform="translate(-44.467 -124.246)" class="colorStrokefff svgStroke"></path><path fill="none" stroke="#2e2655" stroke-linecap="round" stroke-linejoin="round" stroke-width="2" d="M16.45,40.495c-3.041.392-6.082.79-9.124,1.174-.813.1-1.111.642-1.5,1.309A24.473,24.473,0,0,0,2.5,55.505a26.115,26.115,0,0,0,6.307,17.5,2.8,2.8,0,0,0,.727.449" transform="translate(-1.761 -28.524)" class="colorStrokefff svgStroke"></path><path fill="none" stroke="#2e2655" stroke-linecap="round" stroke-linejoin="round" stroke-width="2" d="M8.218,14.909c.751-2.342,2.528-3.9,4.286-5.423,1.926-1.665,3.733-3.592,6.456-3.995,3.373-2.713,7.522-2.857,11.482-2.982A23.549,23.549,0,0,1,40.3,4.454a2.037,2.037,0,0,1,1.35,1.917c.2,2.167.56,4.319.855,6.478.106.774.7.944,1.325,1.024,2.745.357,5.5.652,8.234,1.074a2.078,2.078,0,0,1,1.3,1.007c1.816,3.555,3.289,7.224,3.267,11.316-.006,1.177.056,2.359-.035,3.529a1.464,1.464,0,0,1-.714,1.008c-2.43,1.175-4.908,2.251-7.334,3.432a1.378,1.378,0,0,1-1.493-.005c-2.282-1.269-4.628-2.424-6.886-3.731A3.069,3.069,0,0,1,39,29.909c-.945-2.775-1.816-5.576-2.662-8.383a1.44,1.44,0,0,0-1.633-1.191q-4.414.074-8.829,0c-1.009-.017-1.363.408-1.649,1.333-.9,2.919-1.92,5.8-2.929,8.686a1.944,1.944,0,0,1-.733,1.014c-2.332,1.316-4.71,2.549-7.042,3.865a1.37,1.37,0,0,1-1.492.006c-2.525-1.23-5.09-2.377-7.641-3.555" transform="translate(-3.094 -1.76)" class="colorStrokefff svgStroke"></path><path fill="none" stroke="#2e2655" stroke-linecap="round" stroke-linejoin="round" stroke-width="2" d="M164.055,101.723a30.47,30.47,0,0,1-.545,4.112,27.255,27.255,0,0,1-5.137,10,4.407,4.407,0,0,1-1.161.749" transform="translate(-110.736 -71.651)" class="colorStrokefff svgStroke"></path><path fill="none" stroke="#2e2655" stroke-linecap="round" stroke-linejoin="round" stroke-width="2" d="M141.424,22.387c-.834-1.226-1.6-2.5-2.515-3.668a21.938,21.938,0,0,0-6.619-5.289,4.944,4.944,0,0,0-1.461-.314" transform="translate(-92.153 -9.239)" class="colorStrokefff svgStroke"></path><path fill="none" stroke="#2e2655" stroke-linecap="round" stroke-linejoin="round" stroke-width="2" d="M28.8,114.665c-.343,2.6-.664,5.2-1.041,7.8-.152,1.04-.5,2.054-.615,3.1a1.82,1.82,0,0,0,.5,1.3,25.274,25.274,0,0,0,8.822,5.73,1.783,1.783,0,0,0,1.441-.147c2.538-1.813,5.013-3.715,7.531-5.555a2.033,2.033,0,0,0,.934-2.073c-.171-2.687-.058-5.392-.058-8.09" transform="translate(-19.118 -80.767)" class="colorStrokefff svgStroke"></path><path fill="none" stroke="#2e2655" stroke-linecap="round" stroke-linejoin="round" stroke-width="2" d="M109.865,114.665c.344,2.6.664,5.2,1.041,7.8.152,1.04.527,2.054.607,3.1a2.119,2.119,0,0,1-.638,1.449A29.592,29.592,0,0,1,102.5,132.6a1.662,1.662,0,0,1-1.947-.37c-2.588-2.1-5.353-3.977-8.051-5.939" transform="translate(-65.155 -80.767)" class="colorStrokefff svgStroke"></path><path fill="none" stroke="#2e2655" stroke-linecap="round" stroke-linejoin="round" stroke-width="2" d="M61.637,99.234c2.747,2.011,5.512,4,8.227,6.052a1.016,1.016,0,0,0,1.5,0c2.764-2.054,5.578-4.041,8.374-6.053" transform="translate(-43.416 -69.898)" class="colorStrokefff svgStroke"></path><path fill="none" stroke="#2e2655" stroke-linecap="round" stroke-linejoin="round" stroke-width="2" d="M51.678,13.117c-.27,2.06-.48,4.131-.833,6.176a2.662,2.662,0,0,0,.73,2.832c2.01,1.857,3.856,3.892,5.769,5.855" transform="translate(-35.737 -9.239)" class="colorStrokefff svgStroke"></path><path fill="none" stroke="#2e2655" stroke-linecap="round" stroke-linejoin="round" stroke-width="2" d="M117.687,40l-6.769,6.916" transform="translate(-78.128 -28.173)" class="colorStrokefff svgStroke"></path></g></g></svg></g></svg>