<svg xmlns="http://www.w3.org/2000/svg" width="80" height="80"><rect id="backgroundrect" width="100%" height="100%" x="0" y="0" fill="none" stroke="none" class="" style=""/><g class="currentLayer" style=""><title>Layer 1</title><g id="svg_1" class="selected" stroke-opacity="1" stroke="#004a75"><g fill="none" stroke="#004a75" stroke-width="2" id="svg_2"><circle cx="39.94252755757893" cy="39.82758394081502" r="38.160919189453125" stroke="#004a75" id="svg_3"/><circle cx="39.94252755757893" cy="39.82758394081502" r="37.20689392089844" fill="none" id="svg_4" stroke="#004a75"/></g><path d="M34.111161005776424,34.13758795932273 l-4.2044503174428085,4.216716479981203 l4.2044503174428085,4.218673647064044 " fill="none" stroke="#004a75" stroke-linecap="round" stroke-linejoin="round" stroke-width="2" id="svg_5"/><path d="M44.48604303791751,34.13758795932273 l4.203474806928319,4.216716479981203 l-4.203474806928319,4.218673647064044 " fill="none" stroke="#004a75" stroke-linecap="round" stroke-linejoin="round" stroke-width="2" id="svg_6"/><path d="M37.13464914896963,45.997164220738696 l4.328340152782769,-15.286453500530605 " fill="none" stroke="#004a75" stroke-linecap="round" stroke-width="2" id="svg_7"/><g fill="none" stroke="#004a75" stroke-width="2" id="svg_8"><rect width="31.21633646361249" height="52.84351123671036" rx="3" stroke="#004a75" y="14.041931515582942" x="24.334359325772684" id="svg_9"/><rect x="25.309869840260575" y="15.020515057003504" width="29.265315434636708" height="50.88634415386924" rx="2" fill="none" id="svg_10" stroke="#004a75"/></g><g fill="none" stroke="#004a75" stroke-width="2" id="svg_11"><circle cx="39.94252755757893" cy="60.035357962349366" r="3.816091775894165" stroke="#004a75" id="svg_12"/><circle cx="39.94252755757893" cy="60.035357962349366" r="2.8620688915252686" fill="none" id="svg_13" stroke="#004a75"/></g><g fill="none" stroke="#004a75" stroke-width="2" id="svg_14"><path d="M36.04048549962737,14.041931515582943 H43.84456961553049 a0.9755105144878901,0.9785835414205624 0 0 1 0.9755105144878901,0.9785835414205624 V17.95626568126519 A1.9510210289757808,1.9571670828411245 0 0 1 42.8690591010426,19.913432764106314 H37.01599601411525 A1.9510210289757808,1.9571670828411245 0 0 1 35.064974985139486,17.95626568126519 V15.020515057003504 A0.9755105144878901,0.9785835414205624 0 0 1 36.04048549962737,14.041931515582943 z" stroke="#004a75" id="svg_15"/><path d="M36.04048549962737,15.020515057003504 H43.84456961553049 A0,0 0 0 1 43.84456961553049,15.020515057003504 V17.95626568126519 A0.9755105144878901,0.9785835414205624 0 0 1 42.8690591010426,18.934849222685756 H37.01599601411525 A0.9755105144878901,0.9785835414205624 0 0 1 36.04048549962737,17.95626568126519 V15.020515057003504 A0,0 0 0 1 36.04048549962737,15.020515057003504 z" fill="none" id="svg_16" stroke="#004a75"/></g></g></g></svg>