<svg xmlns="http://www.w3.org/2000/svg" width="80" height="80"><rect id="backgroundrect" width="100%" height="100%" x="0" y="0" fill="none" stroke="none"/><g class="currentLayer" style=""><title>Layer 1</title><g id="svg_1" class="" stroke-opacity="1" stroke="#015e00"><g fill="none" stroke="#015e00" stroke-width="2" id="svg_2"><circle cx="39.79865885689099" cy="39.597315659924455" r="37.78523254394531" stroke="#015e00" id="svg_3"/><circle cx="39.79865885689099" cy="39.597315659924455" r="36.840606689453125" fill="none" id="svg_4" stroke="#015e00"/></g><g fill="none" stroke="#015e00" stroke-width="2" id="svg_5"><circle cx="24.712446880892433" cy="19.371100739069536" r="4.723154067993164" stroke="#015e00" id="svg_6"/><circle cx="24.712446880892433" cy="19.371100739069536" r="3.7785236835479736" fill="none" id="svg_7" stroke="#015e00"/></g><g fill="none" stroke="#015e00" stroke-width="2" id="svg_8"><circle cx="65.94809294862182" cy="42.6312478980527" r="5.66778564453125" stroke="#015e00" id="svg_9"/><circle cx="65.94809294862182" cy="42.6312478980527" r="4.723154067993164" fill="none" id="svg_10" stroke="#015e00"/></g><g fill="none" stroke="#015e00" stroke-width="2" id="svg_11"><circle cx="58.90786069315583" cy="22.405032977197774" r="5.66778564453125" stroke="#015e00" id="svg_12"/><circle cx="58.90786069315583" cy="22.405032977197774" r="4.723154067993164" fill="none" id="svg_13" stroke="#015e00"/></g><g fill="none" stroke="#015e00" stroke-width="2" id="svg_14"><circle cx="14.152098497693444" cy="41.114281778988584" r="5.195469856262207" stroke="#015e00" id="svg_15"/><circle cx="14.152098497693444" cy="41.114281778988584" r="4.250837802886963" fill="none" id="svg_16" stroke="#015e00"/></g><g fill="none" stroke="#015e00" stroke-width="2" id="svg_17"><ellipse cx="50.86188097262327" cy="61.3404966998435" rx="6.034484790399422" ry="6.57351984927785" stroke="#015e00" id="svg_18"/><ellipse cx="50.86188097262327" cy="61.3404966998435" rx="5.028737325332853" ry="5.562209103235104" fill="none" id="svg_19" stroke="#015e00"/></g><g fill="none" stroke="#015e00" stroke-width="2" id="svg_20"><ellipse cx="28.735436741158715" cy="61.3404966998435" rx="5.028737325332853" ry="4.550898357192358" stroke="#015e00" id="svg_21"/><ellipse cx="28.735436741158715" cy="61.3404966998435" rx="4.022989860266282" ry="3.5395876111496114" fill="none" id="svg_22" stroke="#015e00"/></g><g fill="none" stroke="#015e00" stroke-width="2" id="svg_23"><ellipse cx="40.301532589424276" cy="38.58600491388171" rx="15.589085708531844" ry="15.169661190641191" stroke="#015e00" id="svg_24"/><ellipse cx="40.301532589424276" cy="38.58600491388171" rx="14.583338243465272" ry="14.158350444598446" fill="none" id="svg_25" stroke="#015e00"/></g><g fill="none" stroke="#015e00" stroke-width="2" id="svg_26"><ellipse cx="43.82164871715727" cy="13.808891635834431" rx="5.028737325332853" ry="4.550898357192358" stroke="#015e00" id="svg_27"/><ellipse cx="43.82164871715727" cy="13.808891635834431" rx="4.022989860266282" ry="3.5395876111496114" fill="none" id="svg_28" stroke="#015e00"/></g><path d="M26.279489090608184,22.556745390834973 l4.593248672959027,5.389274965661793 " fill="none" stroke="#015e00" stroke-width="2" id="svg_29"/><path d="M42.918492527175694,16.969237717218014 L41.76526243090108,23.971492789542985 " fill="none" stroke="#015e00" stroke-width="2" id="svg_30"/><path d="M33.572082070943495,50.87141822669458 L31.111296732961193,57.52375828926044 " fill="none" stroke="#015e00" stroke-width="2" id="svg_31"/><path d="M45.752683113453685,51.29211312716286 L49.13007764140894,57.523504528432944 " fill="none" stroke="#015e00" stroke-width="2" id="svg_32"/><path d="M18.4365771741412,40.81392545023833 L25.481252664787373,40.36864925667779 " fill="none" stroke="#015e00" stroke-width="2" id="svg_33"/><path d="M55.939895872271435,25.822280628712573 L50.74383463855975,30.626206229231563 " fill="none" stroke="#015e00" stroke-width="2" id="svg_34"/><path d="M61.95628715282416,42.06287940747887 L54.99255190498105,40.90327023168519 " fill="none" stroke="#015e00" stroke-width="2" id="svg_35"/></g></g></svg>