<svg id="SvgjsSvg1196" width="288" height="288" xmlns="http://www.w3.org/2000/svg" version="1.1" xmlns:xlink="http://www.w3.org/1999/xlink" xmlns:svgjs="http://svgjs.com/svgjs"><defs id="SvgjsDefs1197"></defs><g id="SvgjsG1198"><svg xmlns="http://www.w3.org/2000/svg" width="288" height="288" viewBox="0 0 80 80"><g transform="translate(-606.457 -1927.371)" fill="#ffffff" class="color000 svgShape"><g fill="none" stroke="#005e19" stroke-width="2" transform="translate(606.457 1927.371)" class="colorStrokefff svgStroke"><circle cx="40" cy="40" r="40" stroke="none" fill="#ffffff" class="color000 svgShape"></circle><circle cx="40" cy="40" r="39" fill="#ffffff" class="color000 svgShape"></circle></g><path fill="none" stroke="#005e19" stroke-width="2" d="M-14011.04,18572.854h71.976" transform="translate(14621 -16592)" class="colorStrokefff svgStroke"></path><g fill="none" stroke="#005e19" stroke-width="2" transform="translate(623.006 1946)" class="colorStrokefff svgStroke"><circle cx="5.5" cy="5.5" r="5.5" stroke="none" fill="#ffffff" class="color000 svgShape"></circle><circle cx="5.5" cy="5.5" r="4.5" fill="#ffffff" class="color000 svgShape"></circle></g><path fill="none" stroke="#005e19" stroke-width="2" d="M-13991.5,18548.109v24.832" transform="translate(14620.006 -16592)" class="colorStrokefff svgStroke"></path><path fill="none" stroke="#005e19" stroke-width="2" d="M-13991.5,18548.109v15.535" transform="translate(14631 -16582.703)" class="colorStrokefff svgStroke"></path><path fill="none" stroke="#005e19" stroke-width="2" d="M-13991.5,18548.109v20.932" transform="translate(14654 -16588.1)" class="colorStrokefff svgStroke"></path><path fill="none" stroke="#005e19" stroke-dasharray="3 2" stroke-width="2" d="M-13991.5,18548.109v23.941" transform="translate(14666 -16591.109)" class="colorStrokefff svgStroke"></path><path fill="none" stroke="#005e19" stroke-dasharray="3 2" stroke-width="2" d="M-13991.5,18548.109v12.947" transform="translate(14608 -16580.115)" class="colorStrokefff svgStroke"></path><path fill="none" stroke="#005e19" stroke-width="2" d="M-13991.5,18548.111v34.125" transform="translate(14642 -16601.293)" class="colorStrokefff svgStroke"></path><g fill="none" stroke="#005e19" stroke-width="2" transform="rotate(45 -2042.565 1750.448)" class="colorStrokefff svgStroke"><rect width="7.769" height="7.769" stroke="none" fill="#ffffff" class="color000 svgShape"></rect><rect width="5.769" height="5.769" x="1" y="1" fill="#ffffff" class="color000 svgShape"></rect></g><g fill="none" stroke="#005e19" stroke-width="2" transform="rotate(90 -641.667 1309.158)" class="colorStrokefff svgStroke"><rect width="9.982" height="9.982" stroke="none" rx="3" fill="#ffffff" class="color000 svgShape"></rect><rect width="7.982" height="7.982" x="1" y="1" rx="2" fill="#ffffff" class="color000 svgShape"></rect></g><g fill="none" transform="rotate(180 328.5 975.5)"><path d="M6.5,0,13,11H0Z" fill="#ffffff" class="color000 svgShape"></path><path fill="#005e19" d="M 6.5 3.931359767913818 L 3.504894256591797 9 L 9.495105743408203 9 L 6.5 3.931359767913818 M 6.5 0 L 13 11 L 0 11 L 6.5 0 Z" class="colorfff svgShape"></path></g></g></svg></g></svg>