<svg id="SvgjsSvg1300" width="288" height="288" xmlns="http://www.w3.org/2000/svg" version="1.1" xmlns:xlink="http://www.w3.org/1999/xlink" xmlns:svgjs="http://svgjs.com/svgjs"><defs id="SvgjsDefs1301"></defs><g id="SvgjsG1302"><svg xmlns="http://www.w3.org/2000/svg" width="288" height="288" viewBox="0 0 80 80"><g transform="translate(-989.691 -1727.35)" fill="#ffffff" class="color000 svgShape"><g fill="none" stroke="#004a75" stroke-width="2" transform="translate(989.691 1727.35)" class="colorStrokefff svgStroke"><circle cx="40" cy="40" r="40" stroke="none" fill="#ffffff" class="color000 svgShape"></circle><circle cx="40" cy="40" r="39" fill="#ffffff" class="color000 svgShape"></circle></g><path fill="none" stroke="#004a75" stroke-linecap="round" stroke-width="2" d="M-14339.7,18891.053h19.254" transform="translate(15359.102 -17103.15)" class="colorStrokefff svgStroke"></path><path fill="none" stroke="#004a75" stroke-width="2" d="M-14337.858,18886.594v7.543" transform="translate(15361.972 -17106.232)" class="colorStrokefff svgStroke"></path><path fill="none" stroke="#004a75" stroke-width="2" d="M-14337.858,18886.594v7.543" transform="translate(15371.714 -17106.232)" class="colorStrokefff svgStroke"></path><g fill="none" stroke="#004a75" stroke-width="2" transform="translate(1006.117 1749.982)" class="colorStrokefff svgStroke"><rect width="45.68" height="31.722" stroke="none" rx="2" fill="#ffffff" class="color000 svgShape"></rect><rect width="43.68" height="29.722" x="1" y="1" rx="1" fill="#ffffff" class="color000 svgShape"></rect></g><path fill="none" stroke="#004a75" stroke-linecap="round" stroke-linejoin="round" stroke-width="2" d="M-13602.65,18877.346l-4.31,4.309,4.31,4.311" transform="translate(14626.363 -17115.811)" class="colorStrokefff svgStroke"></path><path fill="none" stroke="#004a75" stroke-linecap="round" stroke-linejoin="round" stroke-width="2" d="M-13606.959,18877.346l4.309,4.309-4.309,4.311" transform="translate(14641.308 -17115.811)" class="colorStrokefff svgStroke"></path><path fill="none" stroke="#004a75" stroke-linecap="round" stroke-width="2" d="M-13596.451,18887.137l4.437-15.621" transform="translate(14623.264 -17113.482)" class="colorStrokefff svgStroke"></path></g></svg></g></svg>