<svg id="SvgjsSvg1001" width="288" height="288" xmlns="http://www.w3.org/2000/svg" version="1.1" xmlns:xlink="http://www.w3.org/1999/xlink" xmlns:svgjs="http://svgjs.com/svgjs"><defs id="SvgjsDefs1002"></defs><g id="SvgjsG1008"><svg xmlns="http://www.w3.org/2000/svg" width="288" height="288" viewBox="0 0 80 80"><g transform="translate(-168.957 -1828.35)" fill="#ffffff" class="color000 svgShape"><g fill="none" stroke="#004a75" stroke-width="2" transform="translate(168.957 1828.35)" class="colorStrokefff svgStroke"><circle cx="40" cy="40" r="40" stroke="none" fill="#ffffff" class="color000 svgShape"></circle><circle cx="40" cy="40" r="39" fill="#ffffff" class="color000 svgShape"></circle></g><path fill="none" stroke="#004a75" stroke-linecap="round" stroke-width="2" d="M-14339.7,18891.053h13.467" transform="translate(14533.979 -17010.879)" class="colorStrokefff svgStroke"></path><path fill="none" stroke="#004a75" stroke-width="2" d="M-14337.858,18886.594v5.943" transform="translate(14535.853 -17012.363)" class="colorStrokefff svgStroke"></path><path fill="none" stroke="#004a75" stroke-width="2" d="M-14337.858,18886.594v5.943" transform="translate(14543.53 -17012.363)" class="colorStrokefff svgStroke"></path><path fill="none" stroke="#004a75" stroke-width="2" d="M28.482,22.922,1.831,22.883A1.831,1.831,0,0,1,0,21.052V-.033A1.831,1.831,0,0,1,1.831-1.864h29.29A1.831,1.831,0,0,1,32.951-.033v3.8" transform="translate(185.336 1851.348)" class="colorStrokefff svgStroke"></path><g fill="none" stroke="#004a75" stroke-width="2" transform="translate(211.768 1854.262)" class="colorStrokefff svgStroke"><circle cx="8.046" cy="8.046" r="8.046" stroke="none" fill="#ffffff" class="color000 svgShape"></circle><circle cx="8.046" cy="8.046" r="7.046" fill="#ffffff" class="color000 svgShape"></circle></g><path fill="none" stroke="#004a75" stroke-linecap="round" stroke-width="2" d="M25.534,28.124c0-8.077-5.716-14.624-12.767-14.624S0,20.047,0,28.124" transform="translate(207.045 1859.012)" class="colorStrokefff svgStroke"></path><path fill="none" stroke="#004a75" stroke-width="2" d="M-14402.874,18978.316v4.752" transform="translate(14621.161 -17110.012)" class="colorStrokefff svgStroke"></path><path fill="none" stroke="#004a75" stroke-width="2" d="M-14435.664,18987.354h32.7" transform="translate(14621 -17117)" class="colorStrokefff svgStroke"></path></g></svg></g></svg>