<svg id="SvgjsSvg1126" width="288" height="288" xmlns="http://www.w3.org/2000/svg" version="1.1" xmlns:xlink="http://www.w3.org/1999/xlink" xmlns:svgjs="http://svgjs.com/svgjs"><defs id="SvgjsDefs1127"></defs><g id="SvgjsG1128"><svg xmlns="http://www.w3.org/2000/svg" width="288" height="288" viewBox="0 0 80 80"><g transform="translate(-1389.691 -1117.617)" fill="#ffffff" class="color000 svgShape"><g fill="none" stroke="#005e19" stroke-width="2" transform="translate(1389.691 1117.617)" class="colorStrokefff svgStroke"><circle cx="40" cy="40" r="40" stroke="none" fill="#ffffff" class="color000 svgShape"></circle><circle cx="40" cy="40" r="39" fill="#ffffff" class="color000 svgShape"></circle></g><g fill="none" stroke="#005e19" stroke-width="2" transform="translate(1406.65 1135)" class="colorStrokefff svgStroke"><rect width="32" height="46" stroke="none" rx="2" fill="#ffffff" class="color000 svgShape"></rect><rect width="30" height="44" x="1" y="1" rx="1" fill="#ffffff" class="color000 svgShape"></rect></g><g fill="none" stroke="#005e19" stroke-width="2" transform="translate(1410.65 1139)" class="colorStrokefff svgStroke"><circle cx="12.5" cy="12.5" r="12.5" stroke="none" fill="#ffffff" class="color000 svgShape"></circle><circle cx="12.5" cy="12.5" r="11.5" fill="#ffffff" class="color000 svgShape"></circle></g><g fill="none" stroke="#005e19" stroke-width="2" transform="translate(1420.65 1149)" class="colorStrokefff svgStroke"><circle cx="3" cy="3" r="3" stroke="none" fill="#ffffff" class="color000 svgShape"></circle><circle cx="3" cy="3" r="2" fill="#ffffff" class="color000 svgShape"></circle></g><path fill="none" stroke="#005e19" stroke-linejoin="round" stroke-width="2" d="M-13130.287,18293.311v-9.455l8.2-9.6,1.337,1.234-5.322,8.367v4.314h7.584v5.141Z" transform="translate(14542.402 -17117.867)" class="colorStrokefff svgStroke"></path><g fill="none" stroke="#005e19" stroke-width="2" transform="rotate(135 488.984 882.357)" class="colorStrokefff svgStroke"><rect width="5.876" height="19.247" stroke="none" rx="2.938" fill="#ffffff" class="color000 svgShape"></rect><rect width="3.876" height="17.247" x="1" y="1" rx="1.938" fill="#ffffff" class="color000 svgShape"></rect></g><g fill="none" stroke="#005e19" stroke-width="2" transform="rotate(180 723.638 576.005)" class="colorStrokefff svgStroke"><ellipse cx="12.311" cy="12.312" stroke="none" rx="12.311" ry="12.312" fill="#ffffff" class="color000 svgShape"></ellipse><ellipse cx="12.311" cy="12.312" rx="11.311" ry="11.312" fill="#ffffff" class="color000 svgShape"></ellipse></g></g></svg></g></svg>