<svg id="SvgjsSvg1024" width="288" height="288" xmlns="http://www.w3.org/2000/svg" version="1.1" xmlns:xlink="http://www.w3.org/1999/xlink" xmlns:svgjs="http://svgjs.com/svgjs"><defs id="SvgjsDefs1025"></defs><g id="SvgjsG1026"><svg xmlns="http://www.w3.org/2000/svg" width="288" height="288" viewBox="0 0 80 80"><g transform="translate(-1389.691 -1513.352)" fill="#ffffff" class="color000 svgShape"><g fill="none" stroke="#004a75" stroke-width="2" transform="translate(1389.691 1513.352)" class="colorStrokefff svgStroke"><circle cx="40" cy="40" r="40" stroke="none" fill="#ffffff" class="color000 svgShape"></circle><circle cx="40" cy="40" r="39" fill="#ffffff" class="color000 svgShape"></circle></g><g fill="none" stroke="#004a75" stroke-width="2" transform="translate(1443.713 1535.227)" class="colorStrokefff svgStroke"><circle cx="2.466" cy="2.466" r="2.466" stroke="none" fill="#ffffff" class="color000 svgShape"></circle><circle cx="2.466" cy="2.466" r="1.466" fill="#ffffff" class="color000 svgShape"></circle></g><g fill="none" stroke="#004a75" stroke-width="2" transform="translate(1443.713 1546.09)" class="colorStrokefff svgStroke"><circle cx="2.466" cy="2.466" r="2.466" stroke="none" fill="#ffffff" class="color000 svgShape"></circle><circle cx="2.466" cy="2.466" r="1.466" fill="#ffffff" class="color000 svgShape"></circle></g><g fill="none" stroke="#004a75" stroke-width="2" transform="translate(1443.713 1555.953)" class="colorStrokefff svgStroke"><circle cx="2.466" cy="2.466" r="2.466" stroke="none" fill="#ffffff" class="color000 svgShape"></circle><circle cx="2.466" cy="2.466" r="1.466" fill="#ffffff" class="color000 svgShape"></circle></g><g fill="none" stroke="#004a75" stroke-width="2" transform="translate(1417 1533.172)" class="colorStrokefff svgStroke"><rect width="34.521" height="9.041" stroke="none" rx="3" fill="#ffffff" class="color000 svgShape"></rect><rect width="32.521" height="7.041" x="1" y="1" rx="2" fill="#ffffff" class="color000 svgShape"></rect></g><path fill="none" stroke="#004a75" stroke-width="2" d="M13.744,0H29.361A2.6,2.6,0,0,1,32,2.573V5.182a2.6,2.6,0,0,1-2.635,2.573H13.744" transform="translate(1418.478 1554.541)" class="colorStrokefff svgStroke"></path><path fill="none" stroke="#004a75" stroke-width="2" d="M.8,0H29.361A2.6,2.6,0,0,1,32,2.573V5.182a2.6,2.6,0,0,1-2.635,2.573H13.744" transform="translate(1418.478 1544.186)" class="colorStrokefff svgStroke"></path><g fill="none" stroke="#004a75" stroke-width="2" transform="translate(1407.369 1543.156)" class="colorStrokefff svgStroke"><ellipse cx="12.926" cy="3.878" stroke="none" rx="12.926" ry="3.878" fill="#ffffff" class="color000 svgShape"></ellipse><ellipse cx="12.926" cy="3.878" rx="11.926" ry="2.878" fill="#ffffff" class="color000 svgShape"></ellipse></g><path fill="none" stroke="#004a75" stroke-width="2" d="M0-14.182V8.028c0,1.836,5.339,3.325,11.926,3.325S23.852,9.864,23.852,8.028V-14.182" transform="translate(1408.369 1561.26)" class="colorStrokefff svgStroke"></path><path fill="none" stroke="#004a75" stroke-width="2" d="M23.854,3c0,1.836-5.34,3.325-11.927,3.325S0,4.836,0,3" transform="translate(1408.369 1558.531)" class="colorStrokefff svgStroke"></path><path fill="none" stroke="#004a75" stroke-width="2" d="M23.854,3c0,1.836-5.34,3.325-11.927,3.325S0,4.836,0,3" transform="translate(1408.369 1550.775)" class="colorStrokefff svgStroke"></path></g></svg></g></svg>