<svg id="SvgjsSvg1035" width="288" height="288" xmlns="http://www.w3.org/2000/svg" version="1.1" xmlns:xlink="http://www.w3.org/1999/xlink" xmlns:svgjs="http://svgjs.com/svgjs"><defs id="SvgjsDefs1036"></defs><g id="SvgjsG1037"><svg xmlns="http://www.w3.org/2000/svg" width="288" height="288" viewBox="0 0 80 80"><g transform="translate(-606.457 -1927.371)" fill="#ffffff" class="color000 svgShape"><g fill="none" stroke="#2e2655" stroke-width="2" transform="translate(606.457 1927.371)" class="colorStrokefff svgStroke"><circle cx="40" cy="40" r="40" stroke="none" fill="#ffffff" class="color000 svgShape"></circle><circle cx="40" cy="40" r="39" fill="#ffffff" class="color000 svgShape"></circle></g><g fill="none" stroke="#2e2655" stroke-width="2" transform="translate(635.791 1946.314)" class="colorStrokefff svgStroke"><circle cx="10.063" cy="10.063" r="10.063" stroke="none" fill="#ffffff" class="color000 svgShape"></circle><circle cx="10.063" cy="10.063" r="9.063" fill="#ffffff" class="color000 svgShape"></circle></g><g fill="none" stroke="#2e2655" stroke-width="2" transform="translate(619.956 1952.273)" class="colorStrokefff svgStroke"><circle cx="6.936" cy="6.936" r="6.936" stroke="none" fill="#ffffff" class="color000 svgShape"></circle><circle cx="6.936" cy="6.936" r="5.936" fill="#ffffff" class="color000 svgShape"></circle></g><path fill="none" stroke="#2e2655" stroke-linecap="round" stroke-width="2" d="M22.014,26.077c0-6.946-4.928-12.577-11.007-12.577S0,19.131,0,26.077" transform="translate(615.887 1954.535)" class="colorStrokefff svgStroke"></path><path fill="none" stroke="#2e2655" stroke-linecap="round" stroke-width="2" d="M0,0A4.985,4.985,0,0,1,5.372,5.376" transform="rotate(135 -92.641 1115.59)" class="colorStrokefff svgStroke"></path><path fill="none" stroke="#2e2655" stroke-linecap="round" stroke-width="2" d="M-13600.742,18551.223h26.087" transform="translate(14239.066 -16597.633)" class="colorStrokefff svgStroke"></path><g fill="none" stroke="#2e2655" stroke-width="2" transform="translate(659.415 1956.633)" class="colorStrokefff svgStroke"><circle cx="5.96" cy="5.96" r="5.96" stroke="none" fill="#ffffff" class="color000 svgShape"></circle><circle cx="5.96" cy="5.96" r="4.96" fill="#ffffff" class="color000 svgShape"></circle></g><path fill="none" stroke="#2e2655" stroke-linecap="round" stroke-width="2" d="M18.915,24.333c0-5.983-4.234-10.833-9.458-10.833S0,18.35,0,24.333" transform="translate(655.917 1956.65)" class="colorStrokefff svgStroke"></path><path fill="none" stroke="#2e2655" stroke-width="2" d="M-14307.047-7073.206l2.836,2.837,3.207-3.208" transform="translate(14969.395 9044.539)" class="colorStrokefff svgStroke"></path><path fill="none" stroke="#2e2655" stroke-linecap="round" stroke-width="2" d="M-14304.129-7070.348v7.446" transform="translate(14969.376 9044.512)" class="colorStrokefff svgStroke"></path><path fill="#ffffff" stroke="#2e2655" stroke-linecap="round" stroke-width="2" d="M31.937,31.746c0-10.077-7.149-18.246-15.968-18.246S0,21.669,0,31.746" transform="translate(629.887 1955.682)" class="color2e2655 svgShape colorStrokefff svgStroke"></path><path fill="none" stroke="#2e2655" stroke-linecap="round" stroke-width="2" d="M0,.007S7.783-.518,7.793,7.8" transform="rotate(135 -82.719 1120.873)" class="colorStrokefff svgStroke"></path></g></svg></g></svg>