<svg id="SvgjsSvg1653" width="288" height="288" xmlns="http://www.w3.org/2000/svg" version="1.1" xmlns:xlink="http://www.w3.org/1999/xlink" xmlns:svgjs="http://svgjs.com/svgjs"><defs id="SvgjsDefs1654"></defs><g id="SvgjsG1655"><svg xmlns="http://www.w3.org/2000/svg" width="288" height="288" viewBox="0 0 80 80"><g transform="translate(-989.691 -1121.727)" fill="#ffffff" class="color000 svgShape"><g fill="none" stroke="#005e19" stroke-width="2" transform="translate(989.691 1121.727)" class="colorStrokefff svgStroke"><circle cx="40" cy="40" r="40" stroke="none" fill="#ffffff" class="color000 svgShape"></circle><circle cx="40" cy="40" r="39" fill="#ffffff" class="color000 svgShape"></circle></g><g fill="none" transform="translate(-13619.309 17736.617)"><path d="M14638.819-16556a17.913,17.913,0,0,1-17.818-18,17.913,17.913,0,0,1,17.818-18,17.81,17.81,0,0,1,16.109,10.3,13.839,13.839,0,0,1,8.071-2.586,14.072,14.072,0,0,1,14,14.141,14.073,14.073,0,0,1-14,14.146Z" fill="#ffffff" class="color000 svgShape"></path><path fill="#005e19" d="M 14663 -16557.998046875 C 14666.201171875 -16557.998046875 14669.2119140625 -16559.259765625 14671.4775390625 -16561.548828125 C 14673.748046875 -16563.84375 14674.9990234375 -16566.896484375 14674.9990234375 -16570.14453125 C 14674.9990234375 -16573.390625 14673.748046875 -16576.44140625 14671.4775390625 -16578.736328125 C 14669.2119140625 -16581.025390625 14666.201171875 -16582.28515625 14663 -16582.28515625 C 14660.5078125 -16582.28515625 14658.119140625 -16581.51953125 14656.0908203125 -16580.072265625 L 14654.1376953125 -16578.677734375 L 14653.1181640625 -16580.849609375 C 14651.8515625 -16583.548828125 14649.8662109375 -16585.8359375 14647.376953125 -16587.458984375 C 14644.8271484375 -16589.123046875 14641.8681640625 -16590.001953125 14638.8193359375 -16590.001953125 C 14634.5986328125 -16590.001953125 14630.62890625 -16588.33984375 14627.6416015625 -16585.322265625 C 14624.6494140625 -16582.296875 14623.0009765625 -16578.27734375 14623.0009765625 -16574 C 14623.0009765625 -16569.72265625 14624.6494140625 -16565.703125 14627.6416015625 -16562.677734375 C 14630.62890625 -16559.66015625 14634.5986328125 -16557.998046875 14638.8193359375 -16557.998046875 L 14663 -16557.998046875 M 14663 -16555.998046875 L 14638.8193359375 -16555.998046875 C 14628.9794921875 -16555.998046875 14621.0009765625 -16564.060546875 14621.0009765625 -16574 C 14621.0009765625 -16583.939453125 14628.9794921875 -16592.001953125 14638.8193359375 -16592.001953125 C 14645.931640625 -16592.001953125 14652.0712890625 -16587.7890625 14654.9287109375 -16581.69921875 C 14657.2099609375 -16583.328125 14659.994140625 -16584.28515625 14663 -16584.28515625 C 14670.732421875 -16584.28515625 14676.9990234375 -16577.951171875 14676.9990234375 -16570.14453125 C 14676.9990234375 -16562.33203125 14670.732421875 -16555.998046875 14663 -16555.998046875 Z" class="colorfff svgShape"></path></g><g fill="none" stroke="#005e19" stroke-width="2" transform="translate(1012.65 1162.619)" class="colorStrokefff svgStroke"><ellipse cx="10" cy="3" stroke="none" rx="10" ry="3" fill="#ffffff" class="color000 svgShape"></ellipse><ellipse cx="10" cy="3" rx="9" ry="2" fill="#ffffff" class="color000 svgShape"></ellipse></g><path fill="none" stroke="#005e19" stroke-width="2" d="M0-14.182V3C0,4.421,4.025,5.572,8.99,5.572S17.98,4.421,17.98,3V-14.182" transform="translate(1013.66 1179.834)" class="colorStrokefff svgStroke"></path><path fill="none" stroke="#005e19" stroke-width="2" d="M17.98,3c0,1.421-4.025,2.572-8.99,2.572S0,4.421,0,3" transform="translate(1013.66 1173.834)" class="colorStrokefff svgStroke"></path><path fill="none" stroke="#005e19" stroke-width="2" d="M17.98,3c0,1.421-4.025,2.572-8.99,2.572S0,4.421,0,3" transform="translate(1013.66 1167.834)" class="colorStrokefff svgStroke"></path></g></svg></g></svg>