<svg id="SvgjsSvg1106" width="288" height="288" xmlns="http://www.w3.org/2000/svg" version="1.1" xmlns:xlink="http://www.w3.org/1999/xlink" xmlns:svgjs="http://svgjs.com/svgjs"><defs id="SvgjsDefs1107"></defs><g id="SvgjsG1108"><svg xmlns="http://www.w3.org/2000/svg" width="288" height="288" viewBox="0 0 80 80"><g transform="translate(-989.691 -1028.715)" fill="#ffffff" class="color000 svgShape"><g fill="none" stroke="#005e19" stroke-width="2" transform="translate(989.691 1028.715)" class="colorStrokefff svgStroke"><circle cx="40" cy="40" r="40" stroke="none" fill="#ffffff" class="color000 svgShape"></circle><circle cx="40" cy="40" r="39" fill="#ffffff" class="color000 svgShape"></circle></g><g fill="none" transform="translate(1003.201 1046.094)"><path d="M4.907,0H48.456a4.757,4.757,0,0,1,4.907,4.591V37.426a4.757,4.757,0,0,1-4.907,4.591H4.907A4.757,4.757,0,0,1,0,37.426V4.591A4.757,4.757,0,0,1,4.907,0Z" fill="#ffffff" class="color000 svgShape"></path><path fill="#005e19" d="M 4.906543731689453 1.999996185302734 C 3.303874969482422 1.999996185302734 2.000003814697266 3.162387847900391 2.000003814697266 4.591159820556641 L 2.000003814697266 37.42622756958008 C 2.000003814697266 38.85498809814453 3.303874969482422 40.01737976074219 4.906543731689453 40.01737976074219 L 48.45572280883789 40.01737976074219 C 50.05839157104492 40.01737976074219 51.36226272583008 38.85498809814453 51.36226272583008 37.42622756958008 L 51.36226272583008 4.591159820556641 C 51.36226272583008 3.162387847900391 50.05839157104492 1.999996185302734 48.45572280883789 1.999996185302734 L 4.906543731689453 1.999996185302734 M 4.906543731689453 -3.814697265625e-06 L 48.45572280883789 -3.814697265625e-06 C 51.16554260253906 -3.814697265625e-06 53.36226272583008 2.055538177490234 53.36226272583008 4.591159820556641 L 53.36226272583008 37.42622756958008 C 53.36226272583008 39.96184921264648 51.16554260253906 42.01737976074219 48.45572280883789 42.01737976074219 L 4.906543731689453 42.01737976074219 C 2.196731567382812 42.01737976074219 3.814697265625e-06 39.96184921264648 3.814697265625e-06 37.42622756958008 L 3.814697265625e-06 4.591159820556641 C 3.814697265625e-06 2.055538177490234 2.196731567382812 -3.814697265625e-06 4.906543731689453 -3.814697265625e-06 Z" class="colorfff svgShape"></path></g><path fill="none" stroke="#005e19" stroke-width="2" d="M-14346.919,18881.887h51.612" transform="translate(15350.578 -17801.547)" class="colorStrokefff svgStroke"></path><path fill="none" stroke="#005e19" stroke-width="2" d="M-14346.92,18881.887h33.271" transform="rotate(90 2257.295 17651.283)" class="colorStrokefff svgStroke"></path><path fill="none" stroke="#005e19" stroke-width="2" d="M-14346.92,18881.887h23.55" transform="rotate(-180 -6659.657 9972.795)" class="colorStrokefff svgStroke"></path><path fill="none" stroke="#005e19" stroke-linecap="round" stroke-width="2" d="M-14339.7,18891.053h21.652" transform="translate(15358.752 -17795.918)" class="colorStrokefff svgStroke"></path><path fill="none" stroke="#005e19" stroke-width="2" d="M-14337.858,18886.594v8.48" transform="translate(15362.209 -17799.939)" class="colorStrokefff svgStroke"></path><path fill="none" stroke="#005e19" stroke-width="2" d="M-14337.858,18886.594v8.48" transform="translate(15373.166 -17799.939)" class="colorStrokefff svgStroke"></path><g fill="none" stroke="#005e19" stroke-width="2" transform="translate(1035.267 1052.809)" class="colorStrokefff svgStroke"><circle cx="5.823" cy="5.823" r="5.823" stroke="none" fill="#ffffff" class="color000 svgShape"></circle><circle cx="5.823" cy="5.823" r="4.823" fill="#ffffff" class="color000 svgShape"></circle></g><g fill="none" stroke="#005e19" stroke-width="2" transform="translate(1012.425 1049.533)" class="colorStrokefff svgStroke"><ellipse cx="3.406" cy="3.405" stroke="none" rx="3.406" ry="3.405" fill="#ffffff" class="color000 svgShape"></ellipse><ellipse cx="3.406" cy="3.405" rx="2.406" ry="2.405" fill="#ffffff" class="color000 svgShape"></ellipse></g><g fill="none" stroke="#005e19" stroke-width="2" transform="translate(1012.425 1066.041)" class="colorStrokefff svgStroke"><ellipse cx="3.406" cy="3.405" stroke="none" rx="3.406" ry="3.405" fill="#ffffff" class="color000 svgShape"></ellipse><ellipse cx="3.406" cy="3.405" rx="2.406" ry="2.405" fill="#ffffff" class="color000 svgShape"></ellipse></g><path fill="none" stroke="#005e19" stroke-linecap="round" stroke-width="2" d="M18.479,24.057c0-5.831-4.137-10.557-9.24-10.557S0,18.227,0,24.057" transform="translate(1031.85 1052.541)" class="colorStrokefff svgStroke"></path><path fill="none" stroke="#005e19" stroke-linecap="round" stroke-width="2" d="M10.808,19.674c0-3.41-2.419-6.174-5.4-6.174S0,16.264,0,19.674" transform="translate(1010.426 1043.771)" class="colorStrokefff svgStroke"></path><path fill="none" stroke="#005e19" stroke-linecap="round" stroke-width="2" d="M10.808,19.674c0-3.41-2.419-6.174-5.4-6.174S0,16.264,0,19.674" transform="translate(1010.426 1060.279)" class="colorStrokefff svgStroke"></path><path fill="none" stroke="#005e19" stroke-linecap="round" stroke-width="2" d="M0,0A4.185,4.185,0,0,1,4.509,4.513" transform="rotate(135 301.025 750.096)" class="colorStrokefff svgStroke"></path></g></svg></g></svg>