<svg id="SvgjsSvg1330" width="288" height="288" xmlns="http://www.w3.org/2000/svg" version="1.1" xmlns:xlink="http://www.w3.org/1999/xlink" xmlns:svgjs="http://svgjs.com/svgjs"><defs id="SvgjsDefs1331"></defs><g id="SvgjsG1332"><svg xmlns="http://www.w3.org/2000/svg" width="288" height="288" viewBox="0 0 80 80"><g transform="translate(-168.957 -923.865)" fill="#ffffff" class="color000 svgShape"><g fill="none" stroke="#005e19" stroke-width="2" transform="translate(168.957 923.865)" class="colorStrokefff svgStroke"><circle cx="40" cy="40" r="40" stroke="none" fill="#ffffff" class="color000 svgShape"></circle><circle cx="40" cy="40" r="39" fill="#ffffff" class="color000 svgShape"></circle></g><g transform="translate(-257.916 -514.581)" fill="#ffffff" class="color000 svgShape"><path fill="none" stroke="#005e19" stroke-width="2" d="M30.484,29.525H1.789A1.789,1.789,0,0,1,0,27.735V1.789A1.789,1.789,0,0,1,1.789,0H41.155a1.789,1.789,0,0,1,1.789,1.789V21.242" transform="translate(444.058 1462)" class="colorStrokefff svgStroke"></path><path fill="none" stroke="#005e19" stroke-linecap="round" stroke-linejoin="round" stroke-width="2" d="M-2017.344-8182.409l19.788,20.539,19.627-20.2" transform="translate(2463.166 9645.867)" class="colorStrokefff svgStroke"></path><g fill="none" stroke="#005e19" stroke-width="2" transform="translate(472.688 1478.999)" class="colorStrokefff svgStroke"><circle cx="9" cy="9" r="9" stroke="none" fill="#ffffff" class="color000 svgShape"></circle><circle cx="9" cy="9" r="8" fill="#ffffff" class="color000 svgShape"></circle></g><path fill="none" stroke="#005e19" stroke-width="2" d="M-1972.986-8150.693l11-11" transform="translate(2448.397 9644.196)" class="colorStrokefff svgStroke"></path><path fill="none" stroke="#005e19" stroke-width="2" d="M-14176.148,18084.525l13.347-13.346" transform="translate(14620.916 -16593.809)" class="colorStrokefff svgStroke"></path><path fill="none" stroke="#005e19" stroke-width="2" d="M-14171.5,18075.824l-4.646-4.645" transform="translate(14647.756 -16593.809)" class="colorStrokefff svgStroke"></path></g></g></svg></g></svg>