<svg xmlns="http://www.w3.org/2000/svg" width="96" height="95" viewBox="0 0 96 95">
  <g id="Raggruppa_724" data-name="Raggruppa 724" transform="translate(-521 -759)">
    <ellipse id="Ellisse_265" data-name="Ellisse 265" cx="48" cy="47.5" rx="48" ry="47.5" transform="translate(521 759)" fill="#fff"/>
    <g id="Ellisse_291" data-name="Ellisse 291" transform="translate(530 769)" fill="none" stroke="#004a75" stroke-width="3">
      <ellipse cx="38.5" cy="39" rx="38.5" ry="39" stroke="none"/>
      <ellipse cx="38.5" cy="39" rx="37" ry="37.5" fill="none"/>
    </g>
    <g id="Ellisse_289" data-name="Ellisse 289" transform="translate(558.221 777.309)" fill="#fff" stroke="#004a75" stroke-width="2">
      <ellipse cx="13.064" cy="13.064" rx="13.064" ry="13.064" stroke="none"/>
      <ellipse cx="13.064" cy="13.064" rx="12.064" ry="12.064" fill="none"/>
    </g>
    <path id="Tracciato_685" data-name="Tracciato 685" d="M41.461,37.246c0-13.114-9.281-23.746-20.731-23.746S0,24.131,0,37.246" transform="translate(550.553 793.439)" fill="#fff" stroke="#004a75" stroke-linecap="round" stroke-width="2"/>
    <path id="Tracciato_686" data-name="Tracciato 686" d="M0,.009S10.117-.686,10.117,10.126" transform="translate(578.441 809.29) rotate(135)" fill="none" stroke="#004a75" stroke-linecap="round" stroke-width="2"/>
    <g id="Tracciato_687" data-name="Tracciato 687" transform="translate(539.561 800.615)" fill="#fff">
      <path d="M 10.35709190368652 31.02705001831055 C 7.928431987762451 27.71648406982422 1.000001907348633 17.63675498962402 1.000001907348633 10.40066146850586 C 1.000001907348633 5.217121601104736 5.217122077941895 1.000001430511475 10.40067195892334 1.000001430511475 C 15.58422183990479 1.000001430511475 19.80134201049805 5.217121601104736 19.80134201049805 10.40066146850586 C 19.80134201049805 13.27917098999023 18.0470027923584 17.94110107421875 14.72799205780029 23.88248062133789 C 13.02827072143555 26.92515563964844 11.31562042236328 29.58431816101074 10.35709190368652 31.02705001831055 Z" stroke="none"/>
      <path d="M 10.40067195892334 2.000001907348633 C 5.768522262573242 2.000001907348633 2.000001907348633 5.768522262573242 2.000001907348633 10.40066146850586 C 2.000001907348633 13.7917423248291 3.694482803344727 18.48173141479492 6.900272369384766 23.96360015869141 C 8.130701065063477 26.06762886047363 9.371390342712402 27.91950416564941 10.31748485565186 29.2619571685791 C 11.27848720550537 27.77267456054688 12.56993293762207 25.69513893127441 13.85497188568115 23.39479064941406 C 17.04469299316406 17.68488121032715 18.80134201049805 13.07014083862305 18.80134201049805 10.40066146850586 C 18.80134201049805 5.768522262573242 15.03282165527344 2.000001907348633 10.40067195892334 2.000001907348633 M 10.40067195892334 0 C 16.14480209350586 0 20.80134201049805 4.656532287597656 20.80134201049805 10.40066146850586 C 20.80134201049805 17.85727119445801 10.40067195892334 32.74722290039062 10.40067195892334 32.74722290039062 C 10.40067195892334 32.74722290039062 1.9073486328125e-06 19.58627128601074 1.9073486328125e-06 10.40066146850586 C 1.9073486328125e-06 4.656532287597656 4.65654182434082 0 10.40067195892334 0 Z" stroke="none" fill="#004a75"/>
    </g>
    <g id="Ellisse_290" data-name="Ellisse 290" transform="translate(544.826 806.268)" fill="#fff" stroke="#004a75" stroke-width="2">
      <ellipse cx="5.134" cy="5.134" rx="5.134" ry="5.134" stroke="none"/>
      <ellipse cx="5.134" cy="5.134" rx="4.134" ry="4.134" fill="none"/>
    </g>
    <path id="Tracciato_688" data-name="Tracciato 688" d="M-14933.052-8130.195v-4.076h8.394v7.35l-3.665,2.911" transform="translate(15505.132 8954.156)" fill="none" stroke="#004a75" stroke-width="2"/>
  </g>
</svg>
