<svg id="SvgjsSvg1074" width="288" height="288" xmlns="http://www.w3.org/2000/svg" version="1.1" xmlns:xlink="http://www.w3.org/1999/xlink" xmlns:svgjs="http://svgjs.com/svgjs"><defs id="SvgjsDefs1075"></defs><g id="SvgjsG1076"><svg xmlns="http://www.w3.org/2000/svg" width="288" height="288" viewBox="0 0 80 80"><g transform="translate(-989.691 -1828.35)" fill="#ffffff" class="color000 svgShape"><g fill="none" stroke="#004a75" stroke-width="2" transform="translate(989.691 1828.35)" class="colorStrokefff svgStroke"><circle cx="40" cy="40" r="40" stroke="none" fill="#ffffff" class="color000 svgShape"></circle><circle cx="40" cy="40" r="39" fill="#ffffff" class="color000 svgShape"></circle></g><path fill="none" stroke="#004a75" stroke-linejoin="round" stroke-width="2" d="M14.711,40.316l-.149.161C1.118,32.1,0,16.546,0,6.426A34.15,34.15,0,0,0,14.561,0s.053.1.149.279C14.807.1,14.86,0,14.86,0A34.14,34.14,0,0,0,29.42,6.426c0,10.12-1.118,25.67-14.56,34.05Z" transform="translate(1008.746 1849.611)" class="colorStrokefff svgStroke"></path><path fill="none" stroke="#004a75" stroke-width="2" d="M-13603.544 18967.578v39.629M-13603.544 18974.254l4.672-4.672" transform="translate(14627 -17117)" class="colorStrokefff svgStroke"></path><path fill="none" stroke="#004a75" stroke-width="2" d="M-13603.545,18979.922l10.336-10.336" transform="translate(14627 -17114.664)" class="colorStrokefff svgStroke"></path><path fill="none" stroke="#004a75" stroke-width="2" d="M-13603.544,18984.3l14.709-14.711" transform="translate(14627.001 -17110.777)" class="colorStrokefff svgStroke"></path><path fill="none" stroke="#004a75" stroke-width="2" d="M-13603.544,18983.352l13.765-13.766" transform="translate(14627.001 -17100.832)" class="colorStrokefff svgStroke"></path><path fill="none" stroke="#004a75" stroke-linecap="round" stroke-width="2" d="M0,5.095V16.96l3.845,3.845v5.105" transform="rotate(-90 1450.789 418.623)" class="colorStrokefff svgStroke"></path><path fill="none" stroke="#004a75" stroke-linecap="round" stroke-width="2" d="M3.506,6.26V17.066L0,20.491v5.433" transform="rotate(-90 1454.798 426.007)" class="colorStrokefff svgStroke"></path><path fill="none" stroke="#004a75" stroke-linecap="round" stroke-width="2" d="M-13591.31,18991.9h17.5" transform="translate(14627.596 -17118.383)" class="colorStrokefff svgStroke"></path><path fill="none" stroke="#004a75" stroke-linecap="round" stroke-width="2" d="M-13591.31,18991.9h9.8" transform="translate(14591.596 -17118.383)" class="colorStrokefff svgStroke"></path><path fill="none" stroke="#004a75" stroke-linecap="round" stroke-width="2" d="M-13591.311,18991.9h9.35" transform="translate(14591.596 -17122.49)" class="colorStrokefff svgStroke"></path><path fill="none" stroke="#004a75" stroke-linecap="round" stroke-width="2" d="M-13591.311,18991.9h12.016" transform="translate(14591.596 -17114.604)" class="colorStrokefff svgStroke"></path></g></svg></g></svg>