<svg xmlns="http://www.w3.org/2000/svg" width="80" height="80" viewBox="0 0 80 80"><g transform="translate(-168.957 -2169.002)"><g transform="translate(168.957 2169.002)" fill="none" stroke="#2e2655" stroke-width="2"><circle cx="40" cy="40" r="40" stroke="none"/><circle cx="40" cy="40" r="39" fill="none"/></g><path d="M193.143,2107.57h39.2" transform="translate(-4.265 122.885)" fill="none" stroke="#2e2655" stroke-linecap="round" stroke-width="2"/><g transform="translate(204 2189)" fill="none"><path d="M3.506,9.28a1,1,0,0,1,1.989,0L8.881,40.893A1,1,0,0,1,7.887,42H1.113a1,1,0,0,1-.994-1.107Z" stroke="none"/><path d="M 4.5 18.77351951599121 L 2.225736618041992 40 L 6.774263381958008 40 L 4.5 18.77351951599121 M 4.5 8.386745452880859 C 4.965244770050049 8.386745452880859 5.430490016937256 8.684566497802734 5.494309902191162 9.28021240234375 L 8.881440162658691 40.89346313476562 C 8.944769859313965 41.48451995849609 8.481579780578613 41.99999237060547 7.887129783630371 42 L 1.112870216369629 42 C 0.5184202194213867 41.99999237060547 0.05523014068603516 41.48451995849609 0.1185598373413086 40.89346313476562 L 3.505690097808838 9.28021240234375 C 3.569509983062744 8.684566497802734 4.034755229949951 8.386745452880859 4.5 8.386745452880859 Z" stroke="none" fill="#2e2655"/></g><path d="M192.378,2076.363l18.08-4.785" transform="translate(-5.909 123.426)" fill="none" stroke="#2e2655" stroke-linecap="round" stroke-width="2"/><g transform="translate(204.091 2190.105)" fill="none" stroke="#2e2655" stroke-width="2"><circle cx="4.431" cy="4.431" r="4.431" stroke="none"/><circle cx="4.431" cy="4.431" r="3.431" fill="none"/></g><path d="M10.294,3.5A5.147,5.147,0,0,1,0,3.5Z" transform="translate(185.931 2205.604)" fill="none" stroke="#2e2655" stroke-linejoin="round" stroke-width="2"/><path d="M10.294,3.5A5.147,5.147,0,0,1,0,3.5Z" transform="translate(222.931 2196.309)" fill="none" stroke="#2e2655" stroke-linejoin="round" stroke-width="2"/><path d="M192.378,2076.861l19.956-5.282" transform="translate(19.883 116.697)" fill="none" stroke="#2e2655" stroke-linecap="round" stroke-width="2"/><path d="M194.742,2083.574l-4.52,11.124" transform="translate(-3.294 113.971)" fill="none" stroke="#2e2655" stroke-linecap="round" stroke-width="2"/><path d="M194.742,2083.574l-4.52,11.124" transform="translate(33.273 105.109)" fill="none" stroke="#2e2655" stroke-linecap="round" stroke-width="2"/><path d="M190.222,2083.574l4.52,11.124" transform="translate(0.767 113.971)" fill="none" stroke="#2e2655" stroke-linecap="round" stroke-width="2"/><path d="M190.222,2083.574l4.52,11.124" transform="translate(37.336 105.109)" fill="none" stroke="#2e2655" stroke-linecap="round" stroke-width="2"/></g></svg>