<svg id="SvgjsSvg1097" width="288" height="288" xmlns="http://www.w3.org/2000/svg" version="1.1" xmlns:xlink="http://www.w3.org/1999/xlink" xmlns:svgjs="http://svgjs.com/svgjs"><defs id="SvgjsDefs1098"></defs><g id="SvgjsG1099"><svg xmlns="http://www.w3.org/2000/svg" width="288" height="288" viewBox="0 0 80 80"><g transform="translate(-168.957 -2044.002)" fill="#ffffff" class="color000 svgShape"><g fill="none" stroke="#2e2655" stroke-width="2" transform="translate(168.957 2044.002)" class="colorStrokefff svgStroke"><circle cx="40" cy="40" r="40" stroke="none" fill="#ffffff" class="color000 svgShape"></circle><circle cx="40" cy="40" r="39" fill="#ffffff" class="color000 svgShape"></circle></g><path fill="none" stroke="#2e2655" stroke-width="2" d="M366.5,496.608c-1.169-1.187-2.171-2.268-3.239-3.28a13.091,13.091,0,0,0-13.219-3.377,13.479,13.479,0,0,0-5.9,22.427c7.24,7.31,14.541,14.56,21.818,21.833.14.139.307.251.484.4a8.671,8.671,0,0,0,.714-.576c7.174-7.167,14.379-14.3,21.5-21.521a13.489,13.489,0,0,0-19.114-19.037C368.53,494.448,367.579,495.5,366.5,496.608Z" transform="translate(-157.429 1575.508)" class="colorStrokefff svgStroke"></path></g></svg></g></svg>