<svg xmlns="http://www.w3.org/2000/svg" width="84.461" height="84.461" viewBox="0 0 84.461 84.461"><g transform="translate(-989.691 -174.539)"><g transform="translate(989.691 174.539)" fill="none" stroke="#fff" stroke-width="2"><circle cx="42.231" cy="42.231" r="42.231" stroke="none"></circle><circle cx="42.231" cy="42.231" r="41.231" fill="none"></circle></g><path d="M0,19.931V15.509a.779.779,0,0,0,.081-.025Q2.594,14.41,5.1,13.332a.335.335,0,0,0,.147-.17c.147-.343.278-.693.427-1.035a.353.353,0,0,0,.007-.307C5.013,10.2,4.346,8.568,3.673,6.944a.245.245,0,0,1,.063-.314Q5.171,5.207,6.594,3.772a.232.232,0,0,1,.3-.055C8.528,4.379,10.166,5.034,11.8,5.7a.4.4,0,0,0,.341-.008c.32-.141.646-.271.975-.393a.33.33,0,0,0,.21-.2c.422-1.019.849-2.036,1.273-3.055.282-.679.56-1.359.84-2.038h4.421a.25.25,0,0,0,.01.05q1.089,2.552,2.181,5.1a.312.312,0,0,0,.154.141c.331.145.665.285,1,.414a.377.377,0,0,0,.253,0Q25.936,4.7,28.4,3.681a.263.263,0,0,1,.342.065Q30.16,5.175,31.59,6.589a.229.229,0,0,1,.063.3c-.674,1.661-1.34,3.324-2.011,4.986a.362.362,0,0,0,.006.309c.134.3.246.619.381.923a.4.4,0,0,0,.187.2c1.031.437,2.066.866,3.1,1.294q1.026.425,2.054.846v4.421a.287.287,0,0,0-.05.012q-2.569,1.094-5.136,2.193a.333.333,0,0,0-.151.167c-.132.312-.246.632-.381.942a.353.353,0,0,0,0,.307c.683,1.645,1.361,3.292,2.045,4.937a.24.24,0,0,1-.063.311q-1.435,1.422-2.857,2.858a.227.227,0,0,1-.295.059c-1.651-.667-3.306-1.325-4.957-1.991a.411.411,0,0,0-.357.01c-.282.128-.568.251-.86.355a.447.447,0,0,0-.288.284c-.414,1.01-.837,2.017-1.255,3.025-.281.679-.558,1.36-.836,2.04H15.509a.511.511,0,0,0-.018-.065q-1.082-2.536-2.169-5.07a.332.332,0,0,0-.169-.148c-.349-.146-.7-.287-1.057-.418a.365.365,0,0,0-.242,0Q9.39,30.681,6.932,31.7a.216.216,0,0,1-.283-.05q-1.427-1.441-2.868-2.87a.242.242,0,0,1-.061-.312q.993-2.452,1.968-4.91a.437.437,0,0,0,0-.288c-.131-.349-.285-.69-.418-1.038a.333.333,0,0,0-.2-.209l-.2-.081L0,19.545V18.3M17.641,25.4a7.711,7.711,0,1,0-7.7-7.73,7.711,7.711,0,0,0,7.7,7.73" transform="translate(1014.309 198.088)" fill="none" stroke="#fff" stroke-width="2"></path><path d="M69.45,50.671A25.452,25.452,0,0,1,64.407.272" transform="translate(961.491 190.197)" fill="none" stroke="#fff" stroke-linecap="round" stroke-width="2"></path><path d="M44,.272a25.452,25.452,0,0,1,5.043,50.4" transform="translate(989.048 190.197)" fill="none" stroke="#fff" stroke-linecap="round" stroke-linejoin="round" stroke-width="2"></path><path d="M-14418.842-7399.641l3.236-2.751-3.236-2.993" transform="translate(15447.588 7643.383)" fill="none" stroke="#fff" stroke-linecap="round" stroke-linejoin="round" stroke-width="2"></path><path d="M-14415.635-7405.385l-3.207,2.725,3.207,2.962" transform="translate(15450.932 7593.191)" fill="none" stroke="#fff" stroke-linecap="round" stroke-linejoin="round" stroke-width="2"></path></g></svg>