<svg xmlns="http://www.w3.org/2000/svg" width="38.318" height="37.379" viewBox="0 0 38.318 37.379"><g transform="translate(-266.911 -1654.414)"><path d="M0,17.377" transform="translate(268.925 1654.299)" fill="none" stroke="#2e2655" stroke-linecap="round" stroke-width="2"></path><path d="M16.538,32.523A16.4,16.4,0,0,0,33.076,16.261,16.4,16.4,0,0,0,16.538,0,16.4,16.4,0,0,0,0,16.261" transform="translate(268.925 1655.414)" fill="none" stroke="#2e2655" stroke-linecap="round" stroke-width="2"></path><g transform="translate(296.53 1665.434)" fill="#fff" stroke="#2e2655" stroke-width="2"><rect width="8.134" height="14.088" rx="4.067" stroke="none"></rect><rect x="1" y="1" width="6.134" height="12.088" rx="3.067" fill="none"></rect></g><g transform="translate(300.157 1667.124)" fill="#fff" stroke="#2e2655" stroke-width="2"><rect width="5.071" height="10.707" rx="2.536" stroke="none"></rect><rect x="1" y="1" width="3.071" height="8.707" rx="1.536" fill="none"></rect></g><g transform="translate(266.911 1666.322)" fill="#fff" stroke="#2e2655" stroke-width="2"><rect width="5.071" height="10.707" rx="2.536" stroke="none"></rect><rect x="1" y="1" width="3.071" height="8.707" rx="1.536" fill="none"></rect></g><g transform="translate(279.308 1683.904)" fill="#fff" stroke="#2e2655" stroke-width="2"><ellipse cx="3.944" cy="3.945" rx="3.944" ry="3.945" stroke="none"></ellipse><ellipse cx="3.944" cy="3.945" rx="2.944" ry="2.945" fill="none"></ellipse></g><text transform="translate(281.729 1672.909)" fill="#2e2655" font-size="9" font-family="SegoeUI-Semibold, Segoe UI" font-weight="600"><tspan x="0" y="0">H</tspan></text><g transform="translate(276.216 1661.737)" fill="none" stroke="#2e2655" stroke-width="2"><circle cx="9.276" cy="9.276" r="9.276" stroke="none"></circle><circle cx="9.276" cy="9.276" r="8.276" fill="none"></circle></g></g></svg>