<svg xmlns="http://www.w3.org/2000/svg" width="80" height="80" viewBox="0 0 80 80"><g id="Raggruppa_628" data-name="Raggruppa 628" transform="translate(-167.416 -384.238)"><g id="Ellisse_520" data-name="Ellisse 520" transform="translate(167.416 384.238)" fill="none" stroke="#fff" stroke-width="2"><circle cx="40" cy="40" r="40" stroke="none"></circle><circle cx="40" cy="40" r="39" fill="none"></circle></g><path id="Tracciato_1046" data-name="Tracciato 1046" d="M67.338,46.49A23.341,23.341,0,0,1,62.713.272" transform="translate(139.296 400.926)" fill="none" stroke="#fff" stroke-linecap="round" stroke-width="2"></path><path id="Tracciato_1047" data-name="Tracciato 1047" d="M44,.272a23.34,23.34,0,0,1,4.625,46.217" transform="translate(164.567 400.928)" fill="none" stroke="#fff" stroke-linecap="round" stroke-linejoin="round" stroke-width="2"></path><path id="Tracciato_1048" data-name="Tracciato 1048" d="M-14418.841-7400.117l2.968-2.523-2.968-2.744" transform="translate(14623.463 7850.168)" fill="none" stroke="#fff" stroke-linecap="round" stroke-linejoin="round" stroke-width="2"></path><path id="Tracciato_1049" data-name="Tracciato 1049" d="M-14415.9-7405.385l-2.94,2.5,2.94,2.717" transform="translate(14626.529 7804.141)" fill="none" stroke="#fff" stroke-linecap="round" stroke-linejoin="round" stroke-width="2"></path><path id="Tracciato_1050" data-name="Tracciato 1050" d="M-14292-7281.469v11.934l5.68-5.681" transform="translate(14499.068 7696.98)" fill="none" stroke="#fff" stroke-linecap="round" stroke-linejoin="round" stroke-width="2"></path><g id="Ellisse_528" data-name="Ellisse 528" transform="translate(192.797 409.621)" fill="none" stroke="#fff" stroke-width="2"><circle cx="14.618" cy="14.618" r="14.618" stroke="none"></circle><circle cx="14.618" cy="14.618" r="13.618" fill="none"></circle></g></g></svg>