<svg xmlns="http://www.w3.org/2000/svg" width="84.461" height="84.461" viewBox="0 0 84.461 84.461"><g id="Raggruppa_632" data-name="Raggruppa 632" transform="translate(-603.227 -484.473)"><g id="Ellisse_536" data-name="Ellisse 536" transform="translate(603.227 484.473)" fill="none" stroke="#fff" stroke-width="2"><circle cx="42.231" cy="42.231" r="42.231" stroke="none"></circle><circle cx="42.231" cy="42.231" r="41.231" fill="none"></circle></g><g id="Raggruppa_607" data-name="Raggruppa 607" transform="translate(622.301 496.695)"><g id="Raggruppa_351" data-name="Raggruppa 351" transform="translate(14.218 13.949)"><rect id="Rettangolo_261" data-name="Rettangolo 261" width="5.212" height="2.978" rx="1" fill="none" stroke="#fff" stroke-linecap="round" stroke-linejoin="round" stroke-width="2"></rect><rect id="Rettangolo_262" data-name="Rettangolo 262" width="5.212" height="2.978" rx="1" transform="translate(7.373)" fill="none" stroke="#fff" stroke-linecap="round" stroke-linejoin="round" stroke-width="2"></rect><line id="Linea_1" data-name="Linea 1" x2="2.161" transform="translate(5.212 1.285)" fill="none" stroke="#fff" stroke-linecap="round" stroke-linejoin="round" stroke-width="2"></line></g><g id="Raggruppa_352" data-name="Raggruppa 352" transform="translate(11.145 0)"><path id="Tracciato_749" data-name="Tracciato 749" d="M3979.135,201.383c.011.418-.006,1.187-.042,2.723-.049,2.195-.107,3.21.462,3.541a1.1,1.1,0,0,0,.86.035s.383,5.851,5.856,7.563a5.559,5.559,0,0,0,2.9.14c3.194-.737,5.7-3.7,6.371-7.7a1.087,1.087,0,0,0,.752-.126c.594-.39.456-1.446.4-3.212-.02-.692-.034-1.742.016-3.053v-1.63" transform="translate(-3978.597 -188.445)" fill="none" stroke="#fff" stroke-linecap="round" stroke-linejoin="round" stroke-width="2"></path><path id="Tracciato_750" data-name="Tracciato 750" d="M3996.439,172.264a12.43,12.43,0,0,0-1.751-8.9c-.059,1.006-.451,1.216-1.052,1.331a5.917,5.917,0,0,1-2.388-.064c-1.135-.251-5.083-1.206-7.9-.6-.186.04-3.752.858-5.157,3.784a8.655,8.655,0,0,0-.621,4.151" transform="translate(-3977.553 -163.365)" fill="none" stroke="#fff" stroke-linecap="round" stroke-linejoin="round" stroke-width="2"></path><path id="Tracciato_751" data-name="Tracciato 751" d="M3979.293,192.631a2.69,2.69,0,0,0,1.421-.579c1.216-1.026.588-2.719,1.632-3.948a3.882,3.882,0,0,1,2.79-1.105c2.425-.1,2.908,1.94,6.475,3.65,2.027.971,5.394.261,5.394.261" transform="translate(-3978.756 -179.692)" fill="none" stroke="#fff" stroke-linecap="round" stroke-linejoin="round" stroke-width="2"></path></g><line id="Linea_2" data-name="Linea 2" x2="5.518" y2="4.747" transform="translate(14.762 28.689)" fill="none" stroke="#fff" stroke-linecap="round" stroke-linejoin="round" stroke-width="2"></line><line id="Linea_3" data-name="Linea 3" x1="5.038" y2="4.748" transform="translate(21.284 28.688)" fill="none" stroke="#fff" stroke-linecap="round" stroke-linejoin="round" stroke-width="2"></line><line id="Linea_4" data-name="Linea 4" x1="4.123" y2="4.29" transform="translate(16.017 33.849)" fill="none" stroke="#fff" stroke-linecap="round" stroke-linejoin="round" stroke-width="2"></line><line id="Linea_5" data-name="Linea 5" x1="3.669" y1="4.238" transform="translate(21.284 33.792)" fill="none" stroke="#fff" stroke-linecap="round" stroke-linejoin="round" stroke-width="2"></line><path id="Tracciato_752" data-name="Tracciato 752" d="M4008.079,334.755" transform="translate(-3987.501 -281.788)" fill="none" stroke="#fff" stroke-linecap="round" stroke-linejoin="round" stroke-width="2"></path><path id="Tracciato_753" data-name="Tracciato 753" d="M3993.273,286.841l.026.022.022.074" transform="translate(-3977.27 -248.682)" fill="none" stroke="#fff" stroke-linecap="round" stroke-linejoin="round" stroke-width="2"></path><path id="Tracciato_754" data-name="Tracciato 754" d="M3962.455,285.681v0h-.033l-.353,0h-.385l-14.245-.074c-3.246-.015-5.879-2.992-5.9-6.674l-.046-7.3c.007-3.319,1.824-6.377,4.622-7.345.153-.052.31-.1.467-.137l1.268-.33,6.607-1.712" transform="translate(-3941.491 -231.595)" fill="none" stroke="#fff" stroke-linecap="round" stroke-linejoin="round" stroke-width="2"></path><line id="Linea_6" data-name="Linea 6" x2="12.07" transform="translate(20.931 54.09)" fill="none" stroke="#fff" stroke-linecap="round" stroke-linejoin="round" stroke-width="2"></line><line id="Linea_7" data-name="Linea 7" x2="0.142" y2="4.752" transform="translate(14.691 23.937)" fill="none" stroke="#fff" stroke-linecap="round" stroke-linejoin="round" stroke-width="2"></line><path id="Tracciato_755" data-name="Tracciato 755" d="M3985.235,256.2l-1.8,1.595,3.054,7.855.011.043" transform="translate(-3970.473 -227.508)" fill="none" stroke="#fff" stroke-linecap="round" stroke-linejoin="round" stroke-width="2"></path><path id="Tracciato_756" data-name="Tracciato 756" d="M4032.521,263.3l-.12-.033-6.6-1.912-2.924,7.877" transform="translate(-3997.723 -231.071)" fill="none" stroke="#fff" stroke-linecap="round" stroke-linejoin="round" stroke-width="2"></path><path id="Tracciato_757" data-name="Tracciato 757" d="M4022.773,286.841l-.022.022-.022.074" transform="translate(-3997.622 -248.682)" fill="none" stroke="#fff" stroke-linecap="round" stroke-linejoin="round" stroke-width="2"></path><path id="Tracciato_758" data-name="Tracciato 758" d="M4006.831,316.378v0l.385,0h.386l14.242-.074" transform="translate(-3986.638 -262.292)" fill="none" stroke="#fff" stroke-linecap="round" stroke-linejoin="round" stroke-width="2"></path><line id="Linea_8" data-name="Linea 8" x1="0.142" y2="5.095" transform="translate(26.323 23.594)" fill="none" stroke="#fff" stroke-linecap="round" stroke-linejoin="round" stroke-width="2"></line><line id="Linea_9" data-name="Linea 9" x2="1.799" y2="1.595" transform="translate(26.393 28.689)" fill="none" stroke="#fff" stroke-linecap="round" stroke-linejoin="round" stroke-width="2"></line><path id="Tracciato_759" data-name="Tracciato 759" d="M5597.775,1662.4c-.047-1.006,1.544-2.334,1.208-3.227-.349-.923-2.433-.869-3.038-1.625s-.1-2.779-.918-3.317-2.46.723-3.413.46c-.919-.254-1.689-2.189-2.693-2.144s-1.592,2.045-2.485,2.383c-.924.349-2.685-.753-3.44-.148s-.071,2.575-.61,3.391-2.612.943-2.875,1.9c-.255.919,1.453,2.1,1.5,3.1s-1.543,2.334-1.207,3.227c.349.923,2.433.869,3.037,1.625s.1,2.779.918,3.319,2.46-.725,3.414-.463c.919.254,1.689,2.189,2.691,2.144s1.594-2.045,2.487-2.383c.923-.349,2.685.753,3.44.149s.07-2.575.608-3.391,2.614-.943,2.876-1.9C5599.528,1664.581,5597.821,1663.4,5597.775,1662.4Zm-3.714.17a4.674,4.674,0,1,1-4.883-4.454" transform="translate(-5547.601 -1624.539)" fill="none" stroke="#fff" stroke-linecap="round" stroke-linejoin="round" stroke-width="2"></path><path id="Tracciato_760" data-name="Tracciato 760" d="M5591.5,1710.05l-1.925,10.271,3.376-2.565,2.037,3.718,1.655-9.818" transform="translate(-5554.378 -1663.174)" fill="none" stroke="#fff" stroke-linecap="round" stroke-linejoin="round" stroke-width="2"></path><path id="Tracciato_761" data-name="Tracciato 761" d="M5618.4,1714.784l2.494,8.047-3.6-2.244-1.688,3.889-1.14-4.151" transform="translate(-5571.107 -1666.355)" fill="none" stroke="#fff" stroke-linecap="round" stroke-linejoin="round" stroke-width="2"></path></g></g></svg>