<svg xmlns="http://www.w3.org/2000/svg" width="84.461" height="84.461" viewBox="0 0 84.461 84.461"><g transform="translate(-989.691 -273.52)"><g transform="translate(989.691 273.52)" fill="none" stroke="#fff" stroke-width="2"><circle cx="42.231" cy="42.231" r="42.231" stroke="none"></circle><circle cx="42.231" cy="42.231" r="41.231" fill="none"></circle></g><g transform="translate(1010.615 289.762)" fill="none" stroke="#fff" stroke-width="2"><circle cx="8.5" cy="8.5" r="8.5" stroke="none"></circle><circle cx="8.5" cy="8.5" r="7.5" fill="none"></circle></g><g transform="translate(1034.615 298.762)" fill="none" stroke="#fff" stroke-width="2"><circle cx="8.5" cy="8.5" r="8.5" stroke="none"></circle><circle cx="8.5" cy="8.5" r="7.5" fill="none"></circle></g><g transform="translate(1013.615 320.762)" fill="none" stroke="#fff" stroke-width="2"><circle cx="8.5" cy="8.5" r="8.5" stroke="none"></circle><circle cx="8.5" cy="8.5" r="7.5" fill="none"></circle></g><path d="M-14345.162,18499.393s13.724-2.115,13.176-16.785c-.94-8.865-9.88-14.355-6.038-24.316,2.412-6.254,6.718-9.318,12.334-13.031" transform="translate(15367.615 -18155.238)" fill="none" stroke="#fff" stroke-width="2"></path><path d="M-14333,18440.486l4.3,4.3-4.582,3.953" transform="matrix(0.839, -0.545, 0.545, 0.839, 3013.538, -22983.199)" fill="none" stroke="#fff" stroke-width="2"></path></g></svg>