<svg xmlns="http://www.w3.org/2000/svg" width="84.461" height="84.461" viewBox="0 0 84.461 84.461"><g transform="translate(-1396.158 -487.539)"><g transform="translate(1396.158 487.539)" fill="none" stroke="#fff" stroke-width="2"><circle cx="42.231" cy="42.231" r="42.231" stroke="none"></circle><circle cx="42.231" cy="42.231" r="41.231" fill="none"></circle></g><g transform="translate(1419.588 505.77)"><path d="M0,33.636V6.736a2.752,2.752,0,0,1,3.509-2.4c3.216.585,4.062,2.853,4.62,6.2C8.3,11.589,10.059,21.8,10.059,21.8S29.51,2.99,30.51,2.135,34.259-.971,36.647.527s1.825,4.5.468,5.955S22.69,20.907,22.69,20.907s5.341-4.99,6.394-6a3.806,3.806,0,0,1,4.834-.039,3.89,3.89,0,0,1-.039,5.926c-2.183,2.066-5.887,6-5.887,6s1.287-1.208,3.08-2.768,3.586-2.222,5.575-.624,1.638,4.8-.663,6.823-3.314,3.08-3.314,3.08.189-.182,1.992-1.529a3.674,3.674,0,0,1,5.181.4c1.3,1.489,1.4,4.483-1.131,6.862S27.291,49.367,27.291,49.367a11.973,11.973,0,0,1-10.137,2.378c-6.433-1.17-14.581-8.928-15.711-11.54A25.156,25.156,0,0,1,0,33.636" transform="translate(0 0)" fill="none" stroke="#fff" stroke-linecap="round" stroke-linejoin="round" stroke-width="2"></path><path d="M6.336-4.414,14.2,3.449" transform="translate(-0.598 -5.369) rotate(19)" fill="none" stroke="#fff" stroke-linecap="round" stroke-width="2"></path><path d="M6.336-4.414,11.083.333" transform="matrix(0.629, 0.777, -0.777, 0.629, 8.97, -10.264)" fill="none" stroke="#fff" stroke-linecap="round" stroke-width="2"></path><path d="M6.336-4.414,11.083.333" transform="translate(18.694 -8.413) rotate(88)" fill="none" stroke="#fff" stroke-linecap="round" stroke-width="2"></path></g></g></svg>