<svg xmlns="http://www.w3.org/2000/svg" width="84.461" height="84.461" viewBox="0 0 84.461 84.461"><g transform="translate(-989.691 -482.52)"><g transform="translate(989.691 482.52)" fill="none" stroke="#fff" stroke-width="2"><circle cx="42.231" cy="42.231" r="42.231" stroke="none"></circle><circle cx="42.231" cy="42.231" r="41.231" fill="none"></circle></g><g transform="translate(1014.545 520.031)" fill="none" stroke="#fff" stroke-width="2"><rect width="34.756" height="31.16" rx="4" stroke="none"></rect><rect x="1" y="1" width="32.756" height="29.16" rx="3" fill="none"></rect></g><path d="M.546,0H11.828a11.683,11.683,0,0,1,0,23.367H0" transform="translate(1019.966 521.816) rotate(-90)" fill="none" stroke="#fff" stroke-width="2"></path><path d="M.283,0H11.065a7.466,7.466,0,0,1,0,14.933H0" transform="translate(1024.183 521.08) rotate(-90)" fill="none" stroke="#fff" stroke-width="2"></path><g transform="translate(1026.529 527.223)" fill="none"><path d="M0,17.977,2.494,9.665A5.209,5.209,0,0,1,0,5.242,5.32,5.32,0,0,1,5.393,0a5.32,5.32,0,0,1,5.393,5.242A5.209,5.209,0,0,1,8.292,9.665l2.494,8.312Z" stroke="none"></path><path d="M 8.098162651062012 15.97688293457031 L 5.937090396881104 8.77396297454834 L 7.236910343170166 7.966263294219971 C 8.207090377807617 7.363393306732178 8.786300659179688 6.345113277435303 8.786300659179688 5.242363452911377 C 8.786300659179688 3.454523324966431 7.264140129089355 2.000003337860107 5.393150329589844 2.000003337860107 C 3.522160291671753 2.000003337860107 2.000000238418579 3.454523324966431 2.000000238418579 5.242363452911377 C 2.000000238418579 6.345113277435303 2.579180240631104 7.363413333892822 3.5493004322052 7.966313362121582 L 4.84898042678833 8.774033546447754 L 2.688080787658691 15.97688293457031 L 8.098162651062012 15.97688293457031 M 10.78630065917969 17.97688293457031 L 3.295898522992502e-07 17.97688293457031 L 2.4936203956604 9.665003776550293 C 0.9942903518676758 8.733213424682617 3.295898522992502e-07 7.10054349899292 3.295898522992502e-07 5.242363452911377 C 3.295898522992502e-07 2.347713470458984 2.415560245513916 3.37463370669866e-06 5.393150329589844 3.37463370669866e-06 C 8.370739936828613 3.37463370669866e-06 10.78630065917969 2.347713470458984 10.78630065917969 5.242363452911377 C 10.78630065917969 7.10054349899292 9.792010307312012 8.733213424682617 8.292500495910645 9.665003776550293 L 10.78630065917969 17.97688293457031 Z" stroke="none" fill="#fff"></path></g></g></svg>