<svg xmlns="http://www.w3.org/2000/svg" width="84.461" height="84.461" viewBox="0 0 84.461 84.461"><g transform="translate(-165.727 -489.336)"><g transform="translate(165.727 489.336)" fill="none" stroke="#fff" stroke-width="2"><circle cx="42.231" cy="42.231" r="42.231" stroke="none"></circle><circle cx="42.231" cy="42.231" r="41.231" fill="none"></circle></g><path d="M231.157,269.622l3.281,2.449,3.993-.9,2,3.571,4.015.8.375,4.076,3.343,2.363-1.315,3.877,2.092,3.519-2.778,3.007.48,4.065-3.761,1.617-1.215,3.909-4.093-.053-2.7,3.077-3.718-1.713L227.439,305l-2.7-3.077-4.093.053-1.215-3.909-3.761-1.617.48-4.065-2.778-3.007,2.092-3.519-1.315-3.877,3.343-2.363.375-4.076,4.015-.8,2-3.571,3.993.9Z" transform="translate(-23.203 231.801)" fill="none" stroke="#fff" stroke-miterlimit="10" stroke-width="2"></path><g transform="translate(197.129 507.746)" fill="none" stroke="#fff" stroke-width="2"><circle cx="10.828" cy="10.828" r="10.828" stroke="none"></circle><circle cx="10.828" cy="10.828" r="9.828" fill="none"></circle></g><path d="M-14298.377-7168.948l-11.629,21.077,10.241-3.964,3.5,6.872,6.737-22.729" transform="translate(14497.115 7702.891)" fill="none" stroke="#fff" stroke-width="2"></path><path d="M-14301.151-7168.948l11.627,21.077-10.24-3.964-3.5,6.872-6.739-22.729" transform="translate(14516.928 7702.891)" fill="none" stroke="#fff" stroke-width="2"></path><path d="M-14295.381-7182.03l3.688,3.688,10.743-10.741" transform="translate(14499.537 7700.813)" fill="none" stroke="#fff" stroke-linecap="round" stroke-width="2"></path></g></svg>