<svg xmlns="http://www.w3.org/2000/svg" width="84.461" height="84.461" viewBox="0 0 84.461 84.461"><g transform="translate(-603.227 -279.023)"><g transform="translate(603.227 279.023)" fill="none" stroke="#fff" stroke-width="2"><circle cx="42.231" cy="42.231" r="42.231" stroke="none"></circle><circle cx="42.231" cy="42.231" r="41.231" fill="none"></circle></g><g transform="translate(636.15 312.695)" fill="none" stroke="#fff" stroke-width="2"><circle cx="9" cy="9" r="9" stroke="none"></circle><circle cx="9" cy="9" r="8" fill="none"></circle></g><path d="M-14337,17936.83v14.895" transform="translate(18610.021 14658.566) rotate(90)" fill="none" stroke="#fff" stroke-width="2"></path><path d="M-14337,17936.83v14.895" transform="translate(18568.834 14658.566) rotate(90)" fill="none" stroke="#fff" stroke-width="2"></path><path d="M-14337,17936.83v14.895" transform="translate(14982.15 -17643.305)" fill="none" stroke="#fff" stroke-width="2"></path><path d="M-14337,17936.83v14.895" transform="translate(14982.15 -17602.117)" fill="none" stroke="#fff" stroke-width="2"></path><path d="M0,0V8.318" transform="translate(656.224 332.639) rotate(135)" fill="none" stroke="#fff" stroke-width="2"></path><path d="M0,0V8.318" transform="translate(639.959 316.375) rotate(135)" fill="none" stroke="#fff" stroke-width="2"></path><path d="M0,0V8.318" transform="translate(656.224 310.492) rotate(45)" fill="none" stroke="#fff" stroke-width="2"></path><path d="M0,0V8.318" transform="translate(639.959 326.756) rotate(45)" fill="none" stroke="#fff" stroke-width="2"></path><path d="M0,0V8.318" transform="translate(656.223 332.641) rotate(135)" fill="none" stroke="#fff" stroke-width="2"></path><path d="M0,0V8.318" transform="translate(639.959 316.375) rotate(135)" fill="none" stroke="#fff" stroke-width="2"></path><path d="M0,0V8.318" transform="translate(656.225 310.492) rotate(45)" fill="none" stroke="#fff" stroke-width="2"></path><path d="M0,0V8.318" transform="translate(639.959 326.758) rotate(45)" fill="none" stroke="#fff" stroke-width="2"></path><g transform="translate(622.15 298.695)" fill="none" stroke="#fff" stroke-width="2"><circle cx="23" cy="23" r="23" stroke="none"></circle><circle cx="23" cy="23" r="22" fill="none"></circle></g></g></svg>