<svg xmlns="http://www.w3.org/2000/svg" width="101.217" height="101.217" viewBox="0 0 101.217 101.217"><g id="Raggruppa_626" data-name="Raggruppa 626" transform="translate(-157.891 -166.864)"><text id="_" data-name="&#x20AC;" transform="translate(187.65 215)" fill="#fff" font-size="20" font-family="SegoeUI-Semibold, Segoe UI" font-weight="600"><tspan x="0" y="0">€</tspan></text><path id="Tracciato_1074" data-name="Tracciato 1074" d="M40.322,0A40.322,40.322,0,1,1,4.452,58.758,39.857,39.857,0,0,1,0,40.322a41.258,41.258,0,0,1,.885-8.441A40.372,40.372,0,0,1,34.113.489" transform="matrix(-0.259, -0.966, 0.966, -0.259, 179.987, 266.855)" fill="none" stroke="#fff" stroke-width="2"></path><path id="Tracciato_1073" data-name="Tracciato 1073" d="M1,0H36.9a.992.992,0,0,1,1,.985v48.15a.992.992,0,0,1-1,.985H1a.992.992,0,0,1-1-.985V29.519" transform="translate(191.752 193.773)" fill="none" stroke="#fff" stroke-width="2"></path><g id="Sottrazione_2" data-name="Sottrazione 2" transform="translate(178.482 192.742)" fill="none"><path d="M16.109,32.22A16.11,16.11,0,0,1,4.719,4.719,16.11,16.11,0,1,1,27.5,27.5,16.005,16.005,0,0,1,16.109,32.22ZM16.109,6A10.112,10.112,0,1,0,26.222,16.109,10.123,10.123,0,0,0,16.109,6Z" stroke="none"></path><path d="M 16.10944938659668 30.2199592590332 C 19.87850952148438 30.2199592590332 23.4219799041748 28.75222015380859 26.08708953857422 26.08711051940918 C 28.7522087097168 23.42197036743164 30.2199592590332 19.87850952148438 30.2199592590332 16.10945892333984 C 30.2199592590332 12.34086990356445 28.75222015380859 8.797749519348145 26.08712959289551 6.132769584655762 C 23.42194938659668 3.467709541320801 19.87847900390625 1.999999642372131 16.10944938659668 1.999999642372131 C 12.34089946746826 1.999999642372131 8.797769546508789 3.467699527740479 6.132729530334473 6.132729530334473 C 3.467699527740479 8.797769546508789 1.999999642372131 12.34089946746826 1.999999642372131 16.10945892333984 C 1.999999642372131 19.87847900390625 3.467709541320801 23.42194938659668 6.132759571075439 26.08713912963867 C 8.79773998260498 28.75222969055176 12.34085941314697 30.2199592590332 16.10944938659668 30.2199592590332 M 16.10944938659668 3.998169660568237 C 22.7882194519043 3.998169660568237 28.2217903137207 9.431269645690918 28.2217903137207 16.10945892333984 C 28.2217903137207 22.7882194519043 22.7882194519043 28.2217903137207 16.10944938659668 28.2217903137207 C 9.431269645690918 28.2217903137207 3.998169660568237 22.7882194519043 3.998169660568237 16.10945892333984 C 3.998169660568237 9.431269645690918 9.431269645690918 3.998169660568237 16.10944938659668 3.998169660568237 M 16.10944938659668 32.2199592590332 C 11.8066291809082 32.2199592590332 7.761249542236328 30.54417991638184 4.718519687652588 27.50131988525391 C 1.675739645957947 24.45838928222656 -3.704834057316475e-07 20.41268920898438 -3.704834057316475e-07 16.10945892333984 C -3.704834057316475e-07 11.80667972564697 1.675739645957947 7.761299610137939 4.718519687652588 4.718519687652588 C 7.761299610137939 1.675739645957947 11.80667972564697 -3.704834057316475e-07 16.10944938659668 -3.704834057316475e-07 C 20.41268920898438 -3.704834057316475e-07 24.45838928222656 1.675739645957947 27.50131034851074 4.718519687652588 C 30.54417037963867 7.761249542236328 32.2199592590332 11.8066291809082 32.2199592590332 16.10945892333984 C 32.2199592590332 20.41273880004883 30.54417037963867 24.45843887329102 27.50131034851074 27.50131988525391 C 24.45843887329102 30.54417991638184 20.41273880004883 32.2199592590332 16.10944938659668 32.2199592590332 Z M 16.10944938659668 5.998169422149658 C 10.53407001495361 5.998169422149658 5.998169422149658 10.53407001495361 5.998169422149658 16.10945892333984 C 5.998169422149658 21.6854190826416 10.53407001495361 26.2217903137207 16.10944938659668 26.2217903137207 C 21.68540954589844 26.2217903137207 26.2217903137207 21.6854190826416 26.2217903137207 16.10945892333984 C 26.2217903137207 10.53407001495361 21.68540954589844 5.998169422149658 16.10944938659668 5.998169422149658 Z" stroke="none" fill="#fff"></path></g><g id="Rettangolo_214" data-name="Rettangolo 214" transform="translate(180.521 216.754) rotate(45)" fill="none" stroke="#fff" stroke-width="2"><rect width="6.444" height="28.107" rx="3" stroke="none"></rect><rect x="1" y="1" width="4.444" height="26.107" rx="2" fill="none"></rect></g><path id="Tracciato_645" data-name="Tracciato 645" d="M-14297.771-7652.089h24.868" transform="translate(14496.76 7888.186)" fill="none" stroke="#fff" stroke-width="2"></path><path id="Tracciato_646" data-name="Tracciato 646" d="M-14297.771-7652.089h24.868" transform="translate(14496.76 7881.74)" fill="none" stroke="#fff" stroke-width="2"></path><path id="Tracciato_647" data-name="Tracciato 647" d="M-14297.771-7652.089h9.976" transform="translate(14511.652 7875.297)" fill="none" stroke="#fff" stroke-width="2"></path><path id="Tracciato_648" data-name="Tracciato 648" d="M-14297.772-7652.089h12.435" transform="translate(14509.193 7868.854)" fill="none" stroke="#fff" stroke-width="2"></path><g id="Ellisse_278" data-name="Ellisse 278" transform="translate(211.205 198.521)" fill="none" stroke="#fff" stroke-width="2"><circle cx="6.497" cy="6.497" r="6.497" stroke="none"></circle><circle cx="6.497" cy="6.497" r="5.497" fill="none"></circle></g><g id="Sottrazione_9" data-name="Sottrazione 9" transform="translate(178.482 192.742)" fill="rgba(39,33,79,0)"><path d="M 16.10944938659668 31.2199592590332 C 12.07374954223633 31.2199592590332 8.279500007629395 29.6481990814209 5.425639629364014 26.79422950744629 C 2.571719646453857 23.94017028808594 0.9999996423721313 20.14558029174805 0.9999996423721313 16.10945892333984 C 0.9999996423721313 12.07378959655762 2.571719646453857 8.279540061950684 5.425629615783691 5.425629615783691 C 8.279540061950684 2.571719646453857 12.07378959655762 0.9999996423721313 16.10944938659668 0.9999996423721313 C 20.14558029174805 0.9999996423721313 23.94017028808594 2.571719646453857 26.79421997070312 5.425639629364014 C 29.6481990814209 8.279500007629395 31.2199592590332 12.07376003265381 31.2199592590332 16.10945892333984 C 31.2199592590332 20.14562034606934 29.6481990814209 23.94019889831543 26.79419898986816 26.79421997070312 C 23.94021034240723 29.6481990814209 20.14562034606934 31.2199592590332 16.10944938659668 31.2199592590332 Z M 16.10944938659668 4.998169422149658 C 9.982669830322266 4.998169422149658 4.998169422149658 9.982669830322266 4.998169422149658 16.10945892333984 C 4.998169422149658 22.23682022094727 9.982669830322266 27.2217903137207 16.10944938659668 27.2217903137207 C 22.23682022094727 27.2217903137207 27.2217903137207 22.23682022094727 27.2217903137207 16.10945892333984 C 27.2217903137207 9.982669830322266 22.23682022094727 4.998169422149658 16.10944938659668 4.998169422149658 Z" stroke="none"></path><path d="M 16.10944938659668 30.2199592590332 C 19.87850952148438 30.2199592590332 23.4219799041748 28.75222015380859 26.08708953857422 26.08711051940918 C 28.7522087097168 23.42197036743164 30.2199592590332 19.87850952148438 30.2199592590332 16.10945892333984 C 30.2199592590332 12.34086990356445 28.75222015380859 8.797749519348145 26.08712959289551 6.132769584655762 C 23.42194938659668 3.467709541320801 19.87847900390625 1.999999642372131 16.10944938659668 1.999999642372131 C 12.34089946746826 1.999999642372131 8.797769546508789 3.467699527740479 6.132729530334473 6.132729530334473 C 3.467699527740479 8.797769546508789 1.999999642372131 12.34089946746826 1.999999642372131 16.10945892333984 C 1.999999642372131 19.87847900390625 3.467709541320801 23.42194938659668 6.132759571075439 26.08713912963867 C 8.79773998260498 28.75222969055176 12.34085941314697 30.2199592590332 16.10944938659668 30.2199592590332 M 16.10944938659668 3.998169660568237 C 22.7882194519043 3.998169660568237 28.2217903137207 9.431269645690918 28.2217903137207 16.10945892333984 C 28.2217903137207 22.7882194519043 22.7882194519043 28.2217903137207 16.10944938659668 28.2217903137207 C 9.431269645690918 28.2217903137207 3.998169660568237 22.7882194519043 3.998169660568237 16.10945892333984 C 3.998169660568237 9.431269645690918 9.431269645690918 3.998169660568237 16.10944938659668 3.998169660568237 M 16.10944938659668 32.2199592590332 C 11.8066291809082 32.2199592590332 7.761249542236328 30.54417991638184 4.718519687652588 27.50131988525391 C 1.675739645957947 24.45838928222656 -3.704834057316475e-07 20.41268920898438 -3.704834057316475e-07 16.10945892333984 C -3.704834057316475e-07 11.80667972564697 1.675739645957947 7.761299610137939 4.718519687652588 4.718519687652588 C 7.761299610137939 1.675739645957947 11.80667972564697 -3.704834057316475e-07 16.10944938659668 -3.704834057316475e-07 C 20.41268920898438 -3.704834057316475e-07 24.45838928222656 1.675739645957947 27.50131034851074 4.718519687652588 C 30.54417037963867 7.761249542236328 32.2199592590332 11.8066291809082 32.2199592590332 16.10945892333984 C 32.2199592590332 20.41273880004883 30.54417037963867 24.45843887329102 27.50131034851074 27.50131988525391 C 24.45843887329102 30.54417991638184 20.41273880004883 32.2199592590332 16.10944938659668 32.2199592590332 Z M 16.10944938659668 5.998169422149658 C 10.53407001495361 5.998169422149658 5.998169422149658 10.53407001495361 5.998169422149658 16.10945892333984 C 5.998169422149658 21.6854190826416 10.53407001495361 26.2217903137207 16.10944938659668 26.2217903137207 C 21.68540954589844 26.2217903137207 26.2217903137207 21.6854190826416 26.2217903137207 16.10945892333984 C 26.2217903137207 10.53407001495361 21.68540954589844 5.998169422149658 16.10944938659668 5.998169422149658 Z" stroke="none" fill="#fff"></path></g></g></svg>