<svg xmlns="http://www.w3.org/2000/svg" width="84.461" height="84.461" viewBox="0 0 84.461 84.461"><g transform="translate(-989.691 -583.957)"><g transform="translate(989.691 583.957)" fill="none" stroke="#fff" stroke-width="2"><circle cx="42.231" cy="42.231" r="42.231" stroke="none"></circle><circle cx="42.231" cy="42.231" r="41.231" fill="none"></circle></g><g transform="translate(1007.648 600.721)"><g transform="translate(0 0)"><g transform="translate(0 2.738)"><path d="M1982.98,1112.105v-6.4h-28.656c-.643,0-1.285.018-1.907.054v41.6" transform="translate(-1947.512 -1105.707)" fill="none" stroke="#fff" stroke-linecap="round" stroke-linejoin="round" stroke-width="2"></path><path d="M2023.787,1205.348h10.049l.057-22.747" transform="translate(-1997.77 -1159.854)" fill="none" stroke="#fff" stroke-linecap="round" stroke-linejoin="round" stroke-width="2"></path><path d="M1935.837,1151.353v-39.8a5.718,5.718,0,0,1,4.9-5.658v42.734" transform="translate(-1935.837 -1105.84)" fill="none" stroke="#fff" stroke-linecap="round" stroke-linejoin="round" stroke-width="2"></path><path d="M1965.532,1255.762H1940.72c-2.53,0-4.606-1.18-4.815-2.684.209-1.524,2.317-2.723,4.883-2.723h23" transform="translate(-1935.885 -1207.565)" fill="none" stroke="#fff" stroke-linecap="round" stroke-linejoin="round" stroke-width="2"></path><path d="M2030.155,1250.354h8.169v5.408H2031.9" transform="translate(-2002.254 -1207.565)" fill="none" stroke="#fff" stroke-linecap="round" stroke-linejoin="round" stroke-width="2"></path><path d="M1970.7,1268.614" transform="translate(-1960.389 -1220.423)" fill="none" stroke="#fff" stroke-linecap="round" stroke-linejoin="round" stroke-width="2"></path></g><line x2="19.333" transform="translate(10.314 36.193)" fill="none" stroke="#fff" stroke-linecap="round" stroke-linejoin="round" stroke-width="2"></line><line x2="19.333" transform="translate(10.314 30.234)" fill="none" stroke="#fff" stroke-linecap="round" stroke-linejoin="round" stroke-width="2"></line></g></g><path d="M-14342.271,18758.229l-2.293,3.988h18.383" transform="translate(15377.916 -18147.238)" fill="none" stroke="#fff" stroke-linecap="round" stroke-width="2"></path><path d="M-14328.475,18762.217l2.293-3.988h-18.383" transform="translate(15381.916 -18138.238)" fill="none" stroke="#fff" stroke-linecap="round" stroke-width="2"></path></g></svg>