<svg xmlns="http://www.w3.org/2000/svg" width="84.461" height="84.461" viewBox="0 0 84.461 84.461"><g transform="translate(-603.227 -584.473)"><g transform="translate(603.227 584.473)" fill="none" stroke="#fff" stroke-width="2"><circle cx="42.231" cy="42.231" r="42.231" stroke="none"></circle><circle cx="42.231" cy="42.231" r="41.231" fill="none"></circle></g><g transform="translate(622.301 596.695)"><g transform="translate(14.218 13.949)"><rect width="5.212" height="2.978" rx="1" fill="none" stroke="#fff" stroke-linecap="round" stroke-linejoin="round" stroke-width="2"></rect><rect width="5.212" height="2.978" rx="1" transform="translate(7.373)" fill="none" stroke="#fff" stroke-linecap="round" stroke-linejoin="round" stroke-width="2"></rect><line x2="2.161" transform="translate(5.212 1.285)" fill="none" stroke="#fff" stroke-linecap="round" stroke-linejoin="round" stroke-width="2"></line></g><g transform="translate(11.145 0)"><path d="M3979.135,201.383c.011.418-.006,1.187-.042,2.723-.049,2.195-.107,3.21.462,3.541a1.1,1.1,0,0,0,.86.035s.383,5.851,5.856,7.563a5.559,5.559,0,0,0,2.9.14c3.194-.737,5.7-3.7,6.371-7.7a1.087,1.087,0,0,0,.752-.126c.594-.39.456-1.446.4-3.212-.02-.692-.034-1.742.016-3.053v-1.63" transform="translate(-3978.597 -188.445)" fill="none" stroke="#fff" stroke-linecap="round" stroke-linejoin="round" stroke-width="2"></path><path d="M3996.439,172.264a12.43,12.43,0,0,0-1.751-8.9c-.059,1.006-.451,1.216-1.052,1.331a5.917,5.917,0,0,1-2.388-.064c-1.135-.251-5.083-1.206-7.9-.6-.186.04-3.752.858-5.157,3.784a8.655,8.655,0,0,0-.621,4.151" transform="translate(-3977.553 -163.365)" fill="none" stroke="#fff" stroke-linecap="round" stroke-linejoin="round" stroke-width="2"></path><path d="M3979.293,192.631a2.69,2.69,0,0,0,1.421-.579c1.216-1.026.588-2.719,1.632-3.948a3.882,3.882,0,0,1,2.79-1.105c2.425-.1,2.908,1.94,6.475,3.65,2.027.971,5.394.261,5.394.261" transform="translate(-3978.756 -179.692)" fill="none" stroke="#fff" stroke-linecap="round" stroke-linejoin="round" stroke-width="2"></path></g><line x2="5.518" y2="4.747" transform="translate(14.762 28.689)" fill="none" stroke="#fff" stroke-linecap="round" stroke-linejoin="round" stroke-width="2"></line><line x1="5.038" y2="4.748" transform="translate(21.284 28.688)" fill="none" stroke="#fff" stroke-linecap="round" stroke-linejoin="round" stroke-width="2"></line><line x1="4.123" y2="4.29" transform="translate(16.017 33.849)" fill="none" stroke="#fff" stroke-linecap="round" stroke-linejoin="round" stroke-width="2"></line><line x1="3.669" y1="4.238" transform="translate(21.284 33.792)" fill="none" stroke="#fff" stroke-linecap="round" stroke-linejoin="round" stroke-width="2"></line><path d="M4008.079,334.755" transform="translate(-3987.501 -281.788)" fill="none" stroke="#fff" stroke-linecap="round" stroke-linejoin="round" stroke-width="2"></path><path d="M3993.273,286.841l.026.022.022.074" transform="translate(-3977.27 -248.682)" fill="none" stroke="#fff" stroke-linecap="round" stroke-linejoin="round" stroke-width="2"></path><path d="M3962.455,285.681v0h-.033l-.353,0h-.385l-14.245-.074c-3.246-.015-5.879-2.992-5.9-6.674l-.046-7.3c.007-3.319,1.824-6.377,4.622-7.345.153-.052.31-.1.467-.137l1.268-.33,6.607-1.712" transform="translate(-3941.491 -231.595)" fill="none" stroke="#fff" stroke-linecap="round" stroke-linejoin="round" stroke-width="2"></path><line x2="12.07" transform="translate(20.931 54.09)" fill="none" stroke="#fff" stroke-linecap="round" stroke-linejoin="round" stroke-width="2"></line><line x2="0.142" y2="4.752" transform="translate(14.691 23.937)" fill="none" stroke="#fff" stroke-linecap="round" stroke-linejoin="round" stroke-width="2"></line><path d="M3985.235,256.2l-1.8,1.595,3.054,7.855.011.043" transform="translate(-3970.473 -227.508)" fill="none" stroke="#fff" stroke-linecap="round" stroke-linejoin="round" stroke-width="2"></path><path d="M4032.521,263.3l-.12-.033-6.6-1.912-2.924,7.877" transform="translate(-3997.723 -231.071)" fill="none" stroke="#fff" stroke-linecap="round" stroke-linejoin="round" stroke-width="2"></path><path d="M4022.773,286.841l-.022.022-.022.074" transform="translate(-3997.622 -248.682)" fill="none" stroke="#fff" stroke-linecap="round" stroke-linejoin="round" stroke-width="2"></path><path d="M4006.831,316.378v0l.385,0h.386l14.242-.074" transform="translate(-3986.638 -262.292)" fill="none" stroke="#fff" stroke-linecap="round" stroke-linejoin="round" stroke-width="2"></path><line x1="0.142" y2="5.095" transform="translate(26.323 23.594)" fill="none" stroke="#fff" stroke-linecap="round" stroke-linejoin="round" stroke-width="2"></line><line x2="1.799" y2="1.595" transform="translate(26.393 28.689)" fill="none" stroke="#fff" stroke-linecap="round" stroke-linejoin="round" stroke-width="2"></line></g><path d="M-14295.382-7184.393l2.452,2.452,7.146-7.143" transform="translate(14954.959 7824.199)" fill="none" stroke="#fff" stroke-linecap="round" stroke-width="2"></path><g transform="translate(651.15 626.695)" fill="none" stroke="#fff" stroke-width="2"><circle cx="13" cy="13" r="13" stroke="none"></circle><circle cx="13" cy="13" r="12" fill="none"></circle></g></g></svg>