<svg xmlns="http://www.w3.org/2000/svg" width="84.461" height="84.461" viewBox="0 0 84.461 84.461"><g transform="translate(-603.227 -174.023)"><g transform="translate(603.227 174.023)" fill="none" stroke="#fff" stroke-width="2"><circle cx="42.231" cy="42.231" r="42.231" stroke="none"></circle><circle cx="42.231" cy="42.231" r="41.231" fill="none"></circle></g><g transform="translate(631.168 199.887)" fill="none"><path d="M9.033,32.632a2,2,0,0,1-2-2v-4.02A14.286,14.286,0,0,1,0,14.339,14.456,14.456,0,0,1,14.569,0,14.455,14.455,0,0,1,29.138,14.339,14.286,14.286,0,0,1,22.1,26.612v4.02a2,2,0,0,1-2,2Z" stroke="none"></path><path d="M 20.10510063171387 30.63220024108887 L 20.10490036010742 30.63220024108887 L 20.10490036010742 25.47595024108887 L 21.08102035522461 24.89422035217285 C 22.89803123474121 23.81136131286621 24.41796112060547 22.28307151794434 25.47651100158691 20.47458076477051 C 26.56373023986816 18.61711120605469 27.13840103149414 16.49539184570312 27.13840103149414 14.33880138397217 C 27.13840103149414 11.04895114898682 25.83506011962891 7.954380989074707 23.46846961975098 5.625161170959473 C 21.0932502746582 3.28744101524353 17.93276023864746 2.000001192092896 14.56920051574707 2.000001192092896 C 11.20596027374268 2.000001192092896 8.045580863952637 3.287451028823853 5.67024040222168 5.625191211700439 C 3.303450584411621 7.954511165618896 2.000000476837158 11.0490608215332 2.000000476837158 14.33880138397217 C 2.000000476837158 16.49537086486816 2.574670553207397 18.61704063415527 3.661880493164062 20.47444152832031 C 4.720410346984863 22.28285026550293 6.240350723266602 23.81111145019531 8.057380676269531 24.89399147033691 L 9.033500671386719 25.47572135925293 L 9.033300399780273 30.63220024108887 L 20.10510063171387 30.63220024108887 M 20.10510063171387 32.6322021484375 L 9.033300399780273 32.6322021484375 C 7.929000377655029 32.6322021484375 7.033500671386719 31.73670196533203 7.033500671386719 30.63240051269531 L 7.033500671386719 26.61203193664551 C 2.817700624465942 24.09958076477051 5.157470468475367e-07 19.54285049438477 5.157470468475367e-07 14.33880138397217 C 5.157470468475367e-07 6.419701099395752 6.523200511932373 1.074218744179234e-06 14.56920051574707 1.074218744179234e-06 C 22.6161003112793 1.074218744179234e-06 29.13840103149414 6.419701099395752 29.13840103149414 14.33880138397217 C 29.13840103149414 19.54285049438477 26.3206901550293 24.09982109069824 22.10490036010742 26.61226081848145 L 22.10490036010742 30.63240051269531 C 22.10490036010742 31.73670196533203 21.21030044555664 32.6322021484375 20.10510063171387 32.6322021484375 Z" stroke="none" fill="#fff"></path></g><path d="M-14298.747-6953.226h12.715" transform="translate(14938.207 7191.254)" fill="none" stroke="#fff" stroke-linecap="round" stroke-width="2"></path><path d="M-14298.747-6953.226h12.715" transform="translate(14938.207 7195.27)" fill="none" stroke="#fff" stroke-linecap="round" stroke-width="2"></path><path d="M-14298.747-6953.226h9.916" transform="translate(14939.607 7199.293)" fill="none" stroke="#fff" stroke-linecap="round" stroke-width="2"></path><path d="M-14304.1-6981.915l-8.615,6.164" transform="translate(14973.131 7178.734)" fill="none" stroke="#fff" stroke-linecap="round" stroke-width="2"></path><path d="M-14312.719-6981.915l8.615,6.164" transform="translate(14935.834 7178.734)" fill="none" stroke="#fff" stroke-linecap="round" stroke-width="2"></path><path d="M7.282,0,0,7.284" transform="translate(640.645 190.578) rotate(-45)" fill="none" stroke="#fff" stroke-linecap="round" stroke-width="2"></path><path d="M4.557,0,0,4.243" transform="matrix(0.225, -0.974, 0.974, 0.225, 633.213, 196.148)" fill="none" stroke="#fff" stroke-linecap="round" stroke-width="2"></path><path d="M4.557,0,0,4.243" transform="translate(624.438 212.719) rotate(-120)" fill="none" stroke="#fff" stroke-linecap="round" stroke-width="2"></path><path d="M4.557,4.242,0,0" transform="translate(662.654 210.594) rotate(-60)" fill="none" stroke="#fff" stroke-linecap="round" stroke-width="2"></path><path d="M4.557,4.243,0,0" transform="translate(654.244 196.953) rotate(-103)" fill="none" stroke="#fff" stroke-linecap="round" stroke-width="2"></path><path d="M-14295.382-7184.393l2.452,2.452,7.146-7.143" transform="translate(14937.959 7401.199)" fill="none" stroke="#fff" stroke-linecap="round" stroke-width="2"></path></g></svg>