 <svg class="widget8" xmlns="http://www.w3.org/2000/svg" width="114.77" height="71.163"
                            viewBox="0 0 114.77 71.163">
                            <g transform="translate(1.513 1.513)">
                                <g transform="translate(18.21 8.437)">
                                    <path
                                        d="M4269,1865l-3.2,1.39a2.448,2.448,0,0,1-1.657.1l-6.271-1.865c-.75-.223-1.5-.454-2.244-.706-2.779-.95-14.376-4.287-22.3,2.823l-1.234,1.627a35.815,35.815,0,0,1-6.041,6.234,36.3,36.3,0,0,0-2.838,2.511,3.539,3.539,0,0,0,2.155,6.033c2.607.193,5.951-.624,9.413-4.324,0,0,4.48-5,9.064-3.543,0,0,24.37,10.52,28.642,21.353l7.474-6.115"
                                        transform="translate(-4205.004 -1862.299)" fill="none" stroke="#fff"
                                        stroke-linecap="round" stroke-linejoin="round" stroke-width="3">
                                    </path>
                                    <path d="M4191.255,1915.981c.319.208,8.879,5.721,11.167,7.72"
                                        transform="translate(-4191.255 -1886.178)" fill="none" stroke="#fff"
                                        stroke-linecap="round" stroke-linejoin="round" stroke-width="3">
                                    </path>
                                    <path
                                        d="M4213.912,1869.1l3.18,1.121a15.965,15.965,0,0,0,12.229-.475c.289-.141.579-.29.869-.453"
                                        transform="translate(-4201.333 -1865.325)" fill="none" stroke="#fff"
                                        stroke-linecap="round" stroke-linejoin="round" stroke-width="3">
                                    </path>
                                    <path
                                        d="M4289,1924.126a6.453,6.453,0,0,1-6.663,9.749,5.786,5.786,0,0,1-1.037,5.149,5.523,5.523,0,0,1-5.211,1.875,5.51,5.51,0,0,1-7.5,5.149,6.1,6.1,0,0,1-3.336,3.188c-2.025.762-4.6-.312-5.95-1.026"
                                        transform="translate(-4221.524 -1889.802)" fill="none" stroke="#fff"
                                        stroke-linecap="round" stroke-linejoin="round" stroke-width="3">
                                    </path>
                                    <path
                                        d="M4230.717,1948.754a5.15,5.15,0,0,0,4.738,1.1l.033-.009c2.009-.619,4.757-3.032,4.18-5.243-.364-1.395-1.981-2.443-3.906-2.734a4.71,4.71,0,0,0-.572-3.411,5.055,5.055,0,0,0-4.192-2.135,5.345,5.345,0,0,0-.7-3.177,5.867,5.867,0,0,0-4.479-2.6c1.13-5.405-6.676-5.311-10.253-4.994a6.794,6.794,0,0,0-3.537,1.279,3.371,3.371,0,0,0-1.312,4.237C4211.1,1932.272,4225.918,1944.739,4230.717,1948.754Z"
                                        transform="translate(-4199.791 -1890.379)" fill="none" stroke="#fff"
                                        stroke-linecap="round" stroke-linejoin="round" stroke-width="3">
                                    </path>
                                    <path d="M4227.293,1934.639a42.866,42.866,0,0,1-13.527,2.254"
                                        transform="translate(-4201.269 -1894.478)" fill="none" stroke="#fff"
                                        stroke-linecap="round" stroke-linejoin="round" stroke-width="3">
                                    </path>
                                    <path
                                        d="M4224.834,1946.978a40.286,40.286,0,0,0,4.549-.3,42.656,42.656,0,0,0,8.012-1.75"
                                        transform="translate(-4206.192 -1899.055)" fill="none" stroke="#fff"
                                        stroke-linecap="round" stroke-linejoin="round" stroke-width="3">
                                    </path>
                                    <path
                                        d="M4247.778,1955.036a40.817,40.817,0,0,1-7.212,1.988c-1.087.2-2.124.35-3.112.462h-.012"
                                        transform="translate(-4211.8 -1903.551)" fill="none" stroke="#fff"
                                        stroke-linecap="round" stroke-linejoin="round" stroke-width="3">
                                    </path>
                                </g>
                                <path
                                    d="M4188.286,1855.809a2.822,2.822,0,0,1,1.327,3.739l-.371.792-12.579,26.026-.2.409a2.821,2.821,0,0,1-3.769,1.312l-12.65-6.118a2.822,2.822,0,0,1-1.313-3.766l13.11-27.2a2.821,2.821,0,0,1,3.77-1.316Z"
                                    transform="translate(-4158.453 -1848.125)" fill="none" stroke="#fff"
                                    stroke-linecap="round" stroke-linejoin="round" stroke-width="3"></path>
                                <path
                                    d="M4333.614,1880.281l-12.913,5.543a2.822,2.822,0,0,1-3.708-1.479l-.178-.416-.075-.178-10.958-25.514-.372-.869-.334-.81a2.816,2.816,0,0,1,1.494-3.67l12.935-5.557a2.823,2.823,0,0,1,3.708,1.486l11.88,27.757A2.82,2.82,0,0,1,4333.614,1880.281Z"
                                    transform="translate(-4223.579 -1847.101)" fill="none" stroke="#fff"
                                    stroke-linecap="round" stroke-linejoin="round" stroke-width="3"></path>
                            </g>
                        </svg>