<svg class="widget5" xmlns="http://www.w3.org/2000/svg" width="68.178"
                                        height="88.66" viewBox="0 0 68.178 88.66">
                                        <g transform="translate(1.5 1.5)">
                                            <g transform="translate(22.517 22.091)">
                                                <rect width="8.254" height="4.717" rx="1.949" fill="none" stroke="#fff"
                                                    stroke-linecap="round" stroke-linejoin="round" stroke-width="3">
                                                </rect>
                                                <rect width="8.255" height="4.717" rx="1.949"
                                                    transform="translate(11.676)" fill="none" stroke="#fff"
                                                    stroke-linecap="round" stroke-linejoin="round" stroke-width="3">
                                                </rect>
                                                <line x2="3.422" transform="translate(8.254 2.035)" fill="none"
                                                    stroke="#fff" stroke-linecap="round" stroke-linejoin="round"
                                                    stroke-width="3"></line>
                                            </g>
                                            <g transform="translate(17.649 0)">
                                                <path
                                                    d="M3979.177,202.388c.017.663-.01,1.879-.065,4.312-.078,3.476-.17,5.084.732,5.608a1.749,1.749,0,0,0,1.361.055s.606,9.266,9.275,11.977a8.8,8.8,0,0,0,4.595.221c5.059-1.167,9.026-5.86,10.089-12.2a1.722,1.722,0,0,0,1.191-.2c.94-.617.722-2.289.64-5.086-.031-1.1-.054-2.759.027-4.835v-2.581"
                                                    transform="translate(-3978.325 -181.898)" fill="none" stroke="#fff"
                                                    stroke-linecap="round" stroke-linejoin="round" stroke-width="3">
                                                </path>
                                                <path
                                                    d="M4007.461,177.457a19.687,19.687,0,0,0-2.774-14.092c-.092,1.593-.714,1.926-1.667,2.108a9.373,9.373,0,0,1-3.782-.1c-1.8-.4-8.05-1.91-12.5-.955-.295.063-5.941,1.358-8.167,5.993a13.706,13.706,0,0,0-.983,6.574"
                                                    transform="translate(-3977.553 -163.365)" fill="none" stroke="#fff"
                                                    stroke-linecap="round" stroke-linejoin="round" stroke-width="3">
                                                </path>
                                                <path
                                                    d="M3979.293,195.921a4.259,4.259,0,0,0,2.251-.917c1.926-1.625.932-4.305,2.585-6.252,1.382-1.629,3.752-1.724,4.417-1.751,3.84-.154,4.6,3.073,10.254,5.78,3.211,1.538,8.542.414,8.542.414"
                                                    transform="translate(-3978.441 -175.43)" fill="none" stroke="#fff"
                                                    stroke-linecap="round" stroke-linejoin="round" stroke-width="3">
                                                </path>
                                            </g>
                                            <line x2="8.738" y2="7.517" transform="translate(23.378 45.434)" fill="none"
                                                stroke="#fff" stroke-linecap="round" stroke-linejoin="round"
                                                stroke-width="3">
                                            </line>
                                            <line x1="7.979" y2="7.519" transform="translate(33.706 45.431)" fill="none"
                                                stroke="#fff" stroke-linecap="round" stroke-linejoin="round"
                                                stroke-width="3">
                                            </line>
                                            <line x1="6.53" y2="6.793" transform="translate(25.365 53.605)" fill="none"
                                                stroke="#fff" stroke-linecap="round" stroke-linejoin="round"
                                                stroke-width="3">
                                            </line>
                                            <line x1="5.811" y1="6.711" transform="translate(33.706 53.515)" fill="none"
                                                stroke="#fff" stroke-linecap="round" stroke-linejoin="round"
                                                stroke-width="3">
                                            </line>
                                            <path d="M4008.079,334.755" transform="translate(-3975.49 -250.874)"
                                                fill="none" stroke="#fff" stroke-linecap="round" stroke-linejoin="round"
                                                stroke-width="3">
                                            </path>
                                            <path d="M3993.274,286.841l.041.035.035.117"
                                                transform="translate(-3967.931 -226.41)" fill="none" stroke="#fff"
                                                stroke-linecap="round" stroke-linejoin="round" stroke-width="3"></path>
                                            <path
                                                d="M3974.691,299.437v.006h-.052l-.559-.006h-.611l-22.559-.117c-5.14-.023-9.311-4.739-9.347-10.569l-.073-11.556c.01-5.255,2.888-10.1,7.318-11.632.243-.082.491-.159.74-.217l2.008-.523,10.462-2.711"
                                                transform="translate(-3941.491 -213.783)" fill="none" stroke="#fff"
                                                stroke-linecap="round" stroke-linejoin="round" stroke-width="3"></path>
                                            <line x2="19.115" transform="translate(33.147 85.659)" fill="none"
                                                stroke="#fff" stroke-linecap="round" stroke-linejoin="round"
                                                stroke-width="3"></line>
                                            <line x2="0.225" y2="7.525" transform="translate(23.265 37.909)" fill="none"
                                                stroke="#fff" stroke-linecap="round" stroke-linejoin="round"
                                                stroke-width="3">
                                            </line>
                                            <path d="M3986.285,256.2l-2.849,2.525,4.837,12.44.017.069"
                                                transform="translate(-3962.908 -210.764)" fill="none" stroke="#fff"
                                                stroke-linecap="round" stroke-linejoin="round" stroke-width="3"></path>
                                            <path d="M4038.151,264.434l-.19-.052-10.458-3.028-4.63,12.474"
                                                transform="translate(-3983.043 -213.396)" fill="none" stroke="#fff"
                                                stroke-linecap="round" stroke-linejoin="round" stroke-width="3"></path>
                                            <path d="M4022.8,286.841l-.035.035-.035.117"
                                                transform="translate(-3982.969 -226.41)" fill="none" stroke="#fff"
                                                stroke-linecap="round" stroke-linejoin="round" stroke-width="3"></path>
                                            <path
                                                d="M4006.831,302.265v.006l.611-.006h.611l22.554-.117c5.144-.023,9.311-4.738,9.346-10.569l.078-11.556c-.01-5.255-2.888-10.1-7.318-11.632-.248-.082-.5-.159-.745-.217l-2.008-.523"
                                                transform="translate(-3974.853 -216.611)" fill="none" stroke="#fff"
                                                stroke-linecap="round" stroke-linejoin="round" stroke-width="3"></path>
                                            <line x1="0.225" y2="8.069" transform="translate(41.685 37.365)" fill="none"
                                                stroke="#fff" stroke-linecap="round" stroke-linejoin="round"
                                                stroke-width="3">
                                            </line>
                                            <line x2="2.849" y2="2.525" transform="translate(41.798 45.434)" fill="none"
                                                stroke="#fff" stroke-linecap="round" stroke-linejoin="round"
                                                stroke-width="3">
                                            </line>
                                        </g>
                                    </svg>