  <svg class="widget7" xmlns="http://www.w3.org/2000/svg" width="67.419" height="81.778"
                    viewBox="0 0 67.419 81.778">
                    <g transform="translate(1.5 1.5)">
                        <g transform="translate(0 0)">
                            <g transform="translate(0 4.234)">
                                <path d="M1972.613,1105.707h-18.941a9.375,9.375,0,0,0-1.255.083v64.342"
                                    transform="translate(-1944.831 -1105.707)" fill="none" stroke="#fff"
                                    stroke-linecap="round" stroke-linejoin="round" stroke-width="3"></path>
                                <path d="M2023.787,1217.782h15.542l.088-35.181"
                                    transform="translate(-1983.548 -1147.42)" fill="none" stroke="#fff"
                                    stroke-linecap="round" stroke-linejoin="round" stroke-width="3"></path>
                                <path d="M1935.837,1176.2v-61.555a8.844,8.844,0,0,1,7.584-8.751v66.094"
                                    transform="translate(-1935.837 -1105.81)" fill="none" stroke="#fff"
                                    stroke-linecap="round" stroke-linejoin="round" stroke-width="3"></path>
                                <path
                                    d="M1981.727,1258.719h-38.375c-3.913,0-7.124-1.825-7.447-4.152.323-2.357,3.584-4.212,7.552-4.212h35.57"
                                    transform="translate(-1935.874 -1184.174)" fill="none" stroke="#fff"
                                    stroke-linecap="round" stroke-linejoin="round" stroke-width="3"></path>
                                <path d="M2030.155,1250.354h12.634v8.364h-9.934"
                                    transform="translate(-1987.002 -1184.174)" fill="none" stroke="#fff"
                                    stroke-linecap="round" stroke-linejoin="round" stroke-width="3"></path>
                                <path d="M1970.7,1268.614" transform="translate(-1954.751 -1194.079)" fill="none"
                                    stroke="#fff" stroke-linecap="round" stroke-linejoin="round" stroke-width="3">
                                </path>
                            </g>
                            <line x2="29.901" transform="translate(15.952 55.978)" fill="none" stroke="#fff"
                                stroke-linecap="round" stroke-linejoin="round" stroke-width="3"></line>
                            <line x2="29.901" transform="translate(15.952 46.761)" fill="none" stroke="#fff"
                                stroke-linecap="round" stroke-linejoin="round" stroke-width="3"></line>
                            <g transform="translate(25.465 0)">
                                <path d="M1994.681,1126.6a19.469,19.469,0,0,1,16.29-30.143"
                                    transform="translate(-1991.494 -1096.453)" fill="none" stroke="#fff"
                                    stroke-linecap="round" stroke-linejoin="round" stroke-width="3"></path>
                                <path
                                    d="M2033.165,1107.71a19.614,19.614,0,0,1,3.1,3.653,19.468,19.468,0,0,1-28.161,26.1"
                                    transform="translate(-2000.507 -1102.559)" fill="none" stroke="#fff"
                                    stroke-linecap="round" stroke-linejoin="round" stroke-width="3"></path>
                                <ellipse cx="13.738" cy="13.738" rx="13.738" ry="13.738"
                                    transform="translate(2.347 28.645) rotate(-73.155)" fill="none" stroke="#fff"
                                    stroke-linecap="round" stroke-linejoin="round" stroke-width="3"></ellipse>
                            </g>
                        </g>
                        <path d="M0,0V13.959" transform="translate(52.023 19.317) rotate(90)" fill="none" stroke="#fff"
                            stroke-linecap="round" stroke-width="3"></path>
                        <path d="M4742.605-6597.3v13.959" transform="translate(-4697.563 6609.642)" fill="none"
                            stroke="#fff" stroke-linecap="round" stroke-width="3"></path>
                    </g>
                </svg>